<?xml version="1.0" encoding="utf-8"?>
<!-- Generator: Adobe Adobe Illustrator 24.2.0, SVG Export Plug-In . SVG Version: 6.00 Build 0)  -->
<svg version="1.1" id="Layer_1" xmlns="http://www.w3.org/2000/svg" xmlns:xlink="http://www.w3.org/1999/xlink" x="0px" y="0px"
	 width="612px" height="792px" viewBox="0 0 612 792" style="enable-background:new 0 0 612 792;" xml:space="preserve">
<g>
	<g>
		<path d="M414.96,261.38c-1.85,9.04-4.08,18-6.5,26.9c-0.7,2.55-1.41,5.1-2.13,7.64c0.06-0.23,0.8-0.26,0.87-0.5
			c2.52-8.87,4.9-17.79,6.96-26.78c0.59-2.58,1.15-5.17,1.68-7.76C415.78,261.09,415.01,261.16,414.96,261.38L414.96,261.38z"/>
	</g>
</g>
<g>
	<g>
		<path d="M407.56,276.18c-2.45,12.76-6.13,25.38-11.35,37.29c-1.43,3.26-2.98,6.46-4.69,9.59c0.13-0.25,0.73-0.25,0.87-0.5
			c6.24-11.43,10.59-23.89,13.75-36.5c0.86-3.44,1.62-6.9,2.29-10.37C408.38,275.89,407.6,275.96,407.56,276.18L407.56,276.18z"/>
	</g>
</g>
<g>
	<g>
		<path d="M396.45,314.43c-5.23,8.03-11.01,15.73-16.91,23.28c-1.34,1.71-2.69,3.41-4.06,5.09c0.2-0.24,0.67-0.26,0.87-0.5
			c5.78-7.07,11.28-14.38,16.54-21.85c1.51-2.15,3-4.32,4.44-6.53C397.16,314.17,396.62,314.18,396.45,314.43L396.45,314.43z"/>
	</g>
</g>
<g>
	<g>
		<path d="M376.72,334.17c-2.5,2.63-5.43,4.81-8.11,7.24c-2.22,2.01-4.91,4.47-5.46,7.57c0.04-0.21,0.83-0.28,0.87-0.5
			c0.55-3.09,3.24-5.55,5.46-7.57c2.68-2.43,5.61-4.61,8.11-7.24C377.36,333.9,376.94,333.93,376.72,334.17L376.72,334.17z"/>
	</g>
</g>
<g>
	<g>
		<path d="M364.01,346c-5.18,1.87-10.58,3.02-16.04,3.7c-0.31,0.04-0.56,0.46-0.87,0.5c5.46-0.68,10.86-1.83,16.04-3.7
			C363.46,346.39,363.71,346.11,364.01,346L364.01,346z"/>
	</g>
</g>
<g>
	<g>
		<path d="M335.64,344.77c-4.57-3.27-9.28-6.77-11.1-12.34c0.02,0.06-0.89,0.43-0.87,0.5c1.82,5.56,6.54,9.07,11.1,12.34
			C334.89,345.35,335.53,344.69,335.64,344.77L335.64,344.77z"/>
	</g>
</g>
<g>
	<g>
		<path d="M344.27,348.47c-2.91-0.48-5.9-1.12-8.5-2.58c-2.41-1.36-4.17-3.43-5.07-6.05c0.02,0.05-0.89,0.43-0.87,0.5
			c0.89,2.62,2.66,4.7,5.07,6.05c2.6,1.46,5.59,2.11,8.5,2.58C343.67,349.01,344.02,348.43,344.27,348.47L344.27,348.47z"/>
	</g>
</g>
<g>
	<g>
		<path d="M396.45,141.72c0.29,0,0.58-0.5,0.87-0.5C397.03,141.22,396.74,141.72,396.45,141.72L396.45,141.72z"/>
	</g>
</g>
<g>
	<g>
		<path d="M387.82,151.59c0.29,0,0.58-0.5,0.87-0.5C388.39,151.09,388.1,151.59,387.82,151.59L387.82,151.59z"/>
	</g>
</g>
<g>
	<g>
		<path d="M322.06,321.19c-0.04,3.42,0.15,6.96,1.52,10.14c-0.01-0.03,0.88-0.46,0.87-0.5c-1.37-3.19-1.56-6.72-1.52-10.14
			C322.92,320.85,322.06,321.01,322.06,321.19L322.06,321.19z"/>
	</g>
</g>
<g>
	<g>
		<path d="M320.54,314.09c0.14,6.1,0.74,12.17,1.01,18.26c-0.01-0.15,0.87-0.34,0.87-0.5c-0.28-6.09-0.87-12.16-1.01-18.26
			C321.41,313.74,320.53,313.92,320.54,314.09L320.54,314.09z"/>
	</g>
</g>
<g>
	<g>
		<path d="M319.01,305.97c-0.16,5.28,0.41,10.56,1.52,15.72c-0.02-0.09,0.89-0.39,0.87-0.5c-1.11-5.16-1.69-10.44-1.52-15.72
			C319.88,305.64,319.02,305.79,319.01,305.97L319.01,305.97z"/>
	</g>
</g>
<g>
	<g>
		<path d="M317.49,298.87c-0.05,3.56-0.18,7.41,1.52,10.65c0-0.01,0.88-0.48,0.87-0.5c-1.7-3.24-1.57-7.09-1.52-10.65
			C318.36,298.54,317.5,298.7,317.49,298.87L317.49,298.87z"/>
	</g>
</g>
<g>
	<g>
		<path d="M318,286.7c0.03,2.21,0.02,4.41,0.14,6.62c0.09,1.81,0.13,3.86,0.87,5.56c-0.01-0.03,0.88-0.46,0.87-0.5
			c-0.74-1.69-0.78-3.74-0.87-5.56c-0.11-2.2-0.11-4.41-0.14-6.62C318.87,286.36,318,286.53,318,286.7L318,286.7z"/>
	</g>
</g>
<g>
	<g>
		<path d="M320.03,283.15c-0.64,2.85-0.92,5.76-1.52,8.62c0.01-0.06,0.38-0.21,0.44-0.25c0.07-0.04,0.41-0.17,0.43-0.25
			c0.6-2.86,0.88-5.77,1.52-8.62c-0.01,0.06-0.38,0.21-0.44,0.25C320.39,282.94,320.05,283.07,320.03,283.15L320.03,283.15z"/>
	</g>
</g>
<g>
	<g>
		<path d="M321.55,270.47c-0.78,4.38-2.01,8.72-4.06,12.68c0.13-0.25,0.74-0.25,0.87-0.5c2.04-3.96,3.28-8.3,4.06-12.68
			C322.38,270.18,321.59,270.25,321.55,270.47L321.55,270.47z"/>
	</g>
</g>
<g>
	<g>
		<path d="M322.57,266.41c-1.38,4.02-2.84,8.03-5.07,11.67c0.15-0.25,0.71-0.25,0.87-0.5c2.23-3.63,3.69-7.65,5.07-11.67
			C323.35,266.15,322.65,266.17,322.57,266.41L322.57,266.41z"/>
	</g>
</g>
<g>
	<g>
		<path d="M322.06,258.3c-1.01,2.92-1.57,6.15-3.55,8.62c0.19-0.24,0.67-0.26,0.87-0.5c1.98-2.47,2.54-5.7,3.55-8.62
			c-0.02,0.07-0.36,0.2-0.44,0.25C322.41,258.09,322.09,258.2,322.06,258.3L322.06,258.3z"/>
	</g>
</g>
<g>
	<g>
		<path d="M325.1,252.72c-0.98,3.52-1.77,7.08-2.54,10.65c0.05-0.21,0.82-0.28,0.87-0.5c0.77-3.57,1.56-7.13,2.54-10.65
			C325.91,252.44,325.17,252.48,325.1,252.72L325.1,252.72z"/>
	</g>
</g>
<g>
	<g>
		<path d="M327.64,244.6c-1.13,3.3-2.59,6.48-4.06,9.64c0.11-0.24,0.75-0.25,0.87-0.5c1.47-3.16,2.93-6.34,4.06-9.64
			c-0.02,0.07-0.37,0.21-0.44,0.25C327.99,244.39,327.67,244.51,327.64,244.6L327.64,244.6z"/>
	</g>
</g>
<g>
	<g>
		<path d="M327.13,241.56c-2.3,3.14-3.97,6.73-6.59,9.64c0.21-0.23,0.65-0.26,0.87-0.5c2.63-2.91,4.29-6.49,6.59-9.64
			C327.82,241.3,327.31,241.31,327.13,241.56L327.13,241.56z"/>
	</g>
</g>
<g>
	<g>
		<path d="M328.14,237.5c-1.1,1.75-2.13,3.55-3.27,5.28c-1.01,1.53-2.16,3.35-3.77,4.33c-0.16,0.1,0.14-0.08,0.16-0.08
			c0.2-0.11,0.4-0.23,0.59-0.34c1.59-0.96,2.72-2.65,3.73-4.16c1.21-1.8,2.28-3.68,3.43-5.51
			C328.86,237.25,328.3,237.25,328.14,237.5L328.14,237.5z"/>
	</g>
</g>
<g>
	<g>
		<path d="M326.12,235.47c-1.76,2.94-3.66,5.79-5.58,8.62c0.17-0.25,0.7-0.25,0.87-0.5c1.92-2.83,3.82-5.68,5.58-8.62
			c-0.05,0.09-0.34,0.19-0.44,0.25C326.44,235.28,326.18,235.36,326.12,235.47L326.12,235.47z"/>
	</g>
</g>
<g>
	<g>
		<path d="M325.97,233.96c0.01-0.01,0.01-0.02,0.02-0.03c-0.29,0.17-0.58,0.33-0.87,0.5c-0.01,0.05-0.07,0.12-0.1,0.16
			c-0.09,0.15-0.19,0.3-0.28,0.44c-0.29,0.46-0.58,0.92-0.87,1.38c-0.58,0.9-1.14,1.82-1.76,2.69c-0.04,0.05-0.08,0.1-0.12,0.16
			c-0.27,0.36,0.87-0.59,0.81-0.44c0.04-0.1,0.08-0.19,0.13-0.29c-0.01,0.01-0.13,0.07-0.13,0.07c-0.1,0.06-0.2,0.12-0.31,0.18
			c-0.1,0.06-0.2,0.12-0.31,0.18c-0.03,0.02-0.11,0.05-0.13,0.08c-0.02,0.03-0.16,0.24-0.13,0.29c0.01,0.01,0.8-0.42,0.9-0.52
			c0.25-0.24,0.43-0.6,0.62-0.88c0.69-1.04,1.36-2.1,2.03-3.16c0.12-0.2,0.25-0.39,0.37-0.59c0.04-0.06,0.13-0.16,0.14-0.23
			c-0.01,0.06-0.38,0.21-0.44,0.25c-0.12,0.07-0.34,0.14-0.43,0.25c-0.01,0.01-0.01,0.02-0.02,0.03c0.01-0.02,0.13-0.07,0.13-0.07
			c0.1-0.06,0.2-0.12,0.31-0.18c0.1-0.06,0.2-0.12,0.31-0.18C325.87,234.01,325.95,233.99,325.97,233.96L325.97,233.96z"/>
	</g>
</g>
<g>
	<g>
		<path d="M328.65,231.92c-1.32,1.89-2.97,3.51-4.58,5.15c-0.2,0.21-0.41,0.42-0.61,0.63c-0.09,0.1-0.23,0.2-0.3,0.31
			c-0.11,0.09-0.1,0.11,0.03,0.04c0.07-0.02,0.13-0.05,0.19-0.08c0.45-0.19,0.86-0.44,1.28-0.69c0.86-0.5,1.57-1.18,2.33-1.81
			c-0.25,0.21-0.61,0.29-0.87,0.5c-0.36,0.29-0.7,0.6-1.05,0.9c-0.16,0.13-0.32,0.26-0.48,0.39c-0.11,0.08-0.22,0.16-0.33,0.24
			c-0.32,0.23,0.75-0.38,0.17-0.11c-0.11,0.05-0.22,0.1-0.33,0.14c-0.22,0.08-0.12,0.02,0-0.1c0.16-0.17,0.33-0.34,0.5-0.51
			c0.34-0.35,0.69-0.7,1.04-1.05c1.39-1.4,2.76-2.83,3.89-4.45c-0.07,0.1-0.33,0.19-0.44,0.25
			C328.97,231.73,328.73,231.81,328.65,231.92L328.65,231.92z"/>
	</g>
</g>
<g>
	<g>
		<path d="M332.2,230.91c-0.72,0.85-1.53,1.62-2.42,2.29c0.29-0.17,0.58-0.33,0.87-0.5c1.26-1.66,2.83-3.03,4.45-4.32
			c-0.26,0.21-0.61,0.29-0.87,0.5c-1.62,1.3-3.19,2.67-4.45,4.32c0.02-0.02,0.12-0.06,0.13-0.07c0.1-0.06,0.2-0.12,0.31-0.18
			c0.14-0.08,0.3-0.15,0.43-0.25c0.89-0.68,1.69-1.44,2.42-2.29c-0.02,0.02-0.11,0.06-0.13,0.07c-0.1,0.06-0.2,0.12-0.31,0.18
			C332.51,230.73,332.3,230.8,332.2,230.91L332.2,230.91z"/>
	</g>
</g>
<g>
	<g>
		<path d="M338.29,226.85c-1.2,1.65-2.56,3.18-4.06,4.56c0.11-0.1,0.31-0.17,0.44-0.25c0.14-0.08,0.31-0.15,0.43-0.25
			c1.5-1.39,2.85-2.92,4.06-4.56c-0.01,0.02-0.12,0.07-0.13,0.07c-0.1,0.06-0.2,0.12-0.31,0.18c-0.1,0.06-0.2,0.12-0.31,0.18
			C338.38,226.79,338.31,226.82,338.29,226.85L338.29,226.85z"/>
	</g>
</g>
<g>
	<g>
		<path d="M351.48,251.7c-3.62,3.68-7.82,6.72-11.67,10.14c0.24-0.22,0.62-0.28,0.87-0.5c3.85-3.43,8.05-6.46,11.67-10.14
			C352.12,251.43,351.7,251.47,351.48,251.7L351.48,251.7z"/>
	</g>
</g>
<g>
	<g>
		<path d="M344.38,255.25c-1.51,1.71-3.22,3.23-5.07,4.56c0.27-0.19,0.6-0.31,0.87-0.5c1.85-1.33,3.56-2.85,5.07-4.56
			c-0.09,0.1-0.32,0.18-0.44,0.25C344.68,255.07,344.47,255.14,344.38,255.25L344.38,255.25z"/>
	</g>
</g>
<g>
	<g>
		<path d="M345.39,254.24c-1.97,1.77-3.96,3.52-5.9,5.31c0.29-0.17,0.58-0.33,0.87-0.5c0.7-1.25,1.28-2.57,2.15-3.72
			c-0.18,0.24-0.65,0.29-0.87,0.5c-1.38,1.34-2.74,2.71-4.33,3.8c-0.19,0.13-0.37,0.25-0.57,0.36c-0.67,0.37-0.24,0.03-0.06-0.17
			c0.34-0.4,0.69-0.8,1.04-1.19c0.71-0.79,1.43-1.55,2.17-2.31c-0.22,0.23-0.62,0.29-0.87,0.5c-0.85,0.73-1.62,1.55-2.45,2.3
			c-0.18,0.17-0.37,0.33-0.56,0.49c-0.12,0.09-0.23,0.19-0.36,0.28c-0.05,0.04-0.46,0.29-0.28,0.2c0.21-0.1-0.19,0.06-0.23,0.08
			c-0.1,0.03-0.2,0.07-0.3,0.09c-0.25,0.06-0.5,0.08-0.75,0.08c-0.29,0-0.58,0.5-0.87,0.5c1.11,0.01,2.18-0.67,3.07-1.29
			c1.33-0.92,2.37-2.18,3.59-3.23c-0.29,0.17-0.58,0.33-0.87,0.5c-0.95,0.97-1.87,1.97-2.77,2.99c-0.18,0.2-0.57,0.52-0.66,0.77
			c-0.06,0.17-0.12,0.09,0.13-0.01c0.13-0.05,0.25-0.13,0.37-0.19c0.35-0.19,0.7-0.39,1.04-0.59c2.03-1.19,3.7-2.82,5.38-4.45
			c-0.29,0.17-0.58,0.33-0.87,0.5c-0.87,1.15-1.45,2.47-2.15,3.72c0.12-0.22,0.67-0.32,0.87-0.5c1.95-1.79,3.94-3.54,5.9-5.31
			C346.01,253.96,345.63,254.02,345.39,254.24L345.39,254.24z"/>
	</g>
</g>
<g>
	<g>
		<path d="M333.23,259.81c-2.15,1.36-4.06,3.06-5.59,5.08c0.08-0.1,0.33-0.18,0.44-0.25c0.12-0.07,0.35-0.14,0.43-0.25
			c1.53-2.01,3.43-3.71,5.56-5.06C333.87,259.46,333.49,259.65,333.23,259.81L333.23,259.81z"/>
	</g>
</g>
<g>
	<g>
		<path d="M332.72,258.79c-1.51,0.94-3.02,1.89-4.53,2.83c0.28-0.16,0.57-0.33,0.85-0.49c0.88-0.87,1.68-1.82,2.6-2.65
			c-0.29,0.17-0.58,0.33-0.87,0.5c-0.96,0.96-2.05,1.87-3.28,2.47c0.06-0.03-0.58,0.27-0.58,0.27c0-0.01,0.3-0.28,0.31-0.3
			c0.23-0.22,0.45-0.45,0.67-0.67c0.5-0.51,1.01-1.02,1.57-1.47c-0.25,0.2-0.6,0.31-0.87,0.5c-1.48,1.02-2.97,1.98-4.68,2.57
			c-0.31,0.11-0.56,0.39-0.87,0.5c2.3-0.8,4.42-2.19,6.41-3.57c-0.29,0.17-0.58,0.33-0.87,0.5c-0.73,0.59-1.36,1.27-2.02,1.93
			c-0.14,0.14-0.39,0.3-0.48,0.47c-0.07,0.12,0.09-0.01,0.17-0.05c0.08-0.04,0.15-0.07,0.23-0.11c0.35-0.17,0.7-0.35,1.04-0.54
			c1.49-0.84,2.88-1.78,4.1-2.99c-0.23,0.23-0.63,0.28-0.87,0.5c-0.92,0.83-1.72,1.78-2.6,2.65c0.21-0.21,0.6-0.33,0.85-0.49
			c1.51-0.95,3.02-1.89,4.53-2.83C333.36,258.44,332.98,258.63,332.72,258.79L332.72,258.79z"/>
	</g>
</g>
<g>
	<g>
		<path d="M357.41,249.68c0.72-0.85,1.49-1.65,2.35-2.35c0.24-0.19,0.48-0.38,0.72-0.56c0.12-0.08,0.24-0.17,0.36-0.25
			c0.06-0.04,0.13-0.08,0.19-0.12c0.18-0.11,0.13-0.08-0.15,0.08c0.27-0.09,0.53-0.27,0.79-0.38c0.26-0.11,0.52-0.21,0.79-0.29
			c0.12-0.04,0.25-0.08,0.38-0.11c0.07-0.02,0.15-0.04,0.22-0.05c0.12-0.06,0.15-0.03,0.07,0.08c-0.03,0.24-0.19,0.51-0.29,0.72
			c-0.22,0.49-0.5,0.95-0.81,1.38c-0.65,0.9-1.46,1.66-2.36,2.31c0.29-0.17,0.58-0.33,0.87-0.5c0.31-0.87,0.79-1.67,1.45-2.32
			c0.15-0.15,0.3-0.28,0.47-0.41c0.1-0.08,0.21-0.15,0.31-0.22c-0.79,0.57-0.54,0.29-0.26,0.17c0.36-0.15,0.75-0.23,1.14-0.23
			c0.11,0,0.34-0.19,0.44-0.25c0.1-0.06,0.32-0.25,0.43-0.25c-0.99,0-1.94,0.58-2.73,1.13c-1,0.69-1.71,1.74-2.12,2.88
			c0.03-0.07,0.36-0.2,0.44-0.25c0.14-0.08,0.3-0.16,0.43-0.25c0.81-0.59,1.55-1.26,2.16-2.05c0.3-0.38,0.56-0.78,0.79-1.2
			c0.11-0.21,0.22-0.43,0.31-0.65c0.04-0.1,0.09-0.21,0.12-0.31c0.02-0.05,0.07-0.15,0.08-0.21c0.01-0.13,0.06-0.09-0.07-0.08
			c-0.22,0.01-0.49,0.13-0.7,0.2c-0.23,0.08-0.46,0.16-0.68,0.26c-0.41,0.17-0.8,0.38-1.18,0.59c-0.83,0.47-1.64,0.96-2.38,1.57
			c-0.89,0.72-1.69,1.55-2.43,2.42C356.75,249.94,357.21,249.92,357.41,249.68L357.41,249.68z"/>
	</g>
</g>
<g>
	<g>
		<path d="M407.27,292.79c-1,2.52-1.95,5.06-3.55,7.27c0.29-0.17,0.58-0.33,0.87-0.5c-0.68-6.66,0.26-13.4-0.87-20.02
			c0.02,0.12-0.83,0.35-0.87,0.5c-0.86,4.09-1.05,8.31-2.14,12.36c0.29-0.17,0.58-0.33,0.87-0.5c0.35-5.88,0.82-11.75,1.54-17.59
			c-0.29,0.17-0.58,0.33-0.87,0.5c-0.43,4.16-1.75,8.16-3.61,11.9c0.12-0.24,0.74-0.25,0.87-0.5c1.86-3.74,3.18-7.74,3.61-11.9
			c-0.02,0.19-0.84,0.3-0.87,0.5c-0.72,5.84-1.19,11.71-1.54,17.59c0.01-0.18,0.81-0.3,0.87-0.5c1.09-4.05,1.28-8.26,2.14-12.36
			c-0.29,0.17-0.58,0.33-0.87,0.5c1.12,6.62,0.18,13.37,0.87,20.02c-0.01-0.1,0.78-0.39,0.87-0.5c1.6-2.21,2.55-4.75,3.55-7.27
			C408.04,292.53,407.37,292.54,407.27,292.79L407.27,292.79z"/>
	</g>
</g>
<g>
	<g>
		<path d="M397.13,280.61c-0.44,0.83-0.95,1.61-1.53,2.35c0.29-0.17,0.58-0.33,0.87-0.5c0.36-3.82,2.55-7.14,3.14-10.91
			c-0.03,0.21-0.8,0.28-0.87,0.5c-0.65,2.05-1.45,4.04-2.52,5.9c0.29-0.17,0.58-0.33,0.87-0.5c1.76-5.01,3.97-10.18,3.85-15.59
			c0,0.09-0.77,0.42-0.87,0.5c-2.75,2.13-4.05,5.5-6.4,7.99c0.29-0.17,0.58-0.33,0.87-0.5c-1.35-2.12-0.14-5.14,0.61-7.26
			c0.48-1.37,1.01-2.72,1.43-4.11c0.36-1.2,0.68-2.47,0.55-3.73c0.01,0.1-0.78,0.38-0.87,0.5c-2.06,2.89-4.41,5.57-6.24,8.62
			c0.15-0.25,0.71-0.25,0.87-0.5c1.83-3.05,4.18-5.73,6.24-8.62c-0.29,0.17-0.58,0.33-0.87,0.5c0.12,1.26-0.19,2.53-0.55,3.73
			c-0.42,1.39-0.95,2.74-1.43,4.11c-0.75,2.12-1.97,5.13-0.61,7.26c0,0,0.81-0.44,0.87-0.5c2.35-2.49,3.65-5.86,6.4-7.99
			c-0.29,0.17-0.58,0.33-0.87,0.5c0.12,5.41-2.1,10.58-3.85,15.59c0.08-0.23,0.74-0.27,0.87-0.5c1.07-1.86,1.88-3.85,2.52-5.9
			c-0.29,0.17-0.58,0.33-0.87,0.5c-0.59,3.77-2.79,7.09-3.14,10.91c0.01-0.15,0.75-0.36,0.87-0.5c0.58-0.74,1.09-1.52,1.53-2.35
			C397.86,280.36,397.26,280.36,397.13,280.61L397.13,280.61z"/>
	</g>
</g>
<g>
	<g>
		<path d="M388.35,261.35c0.2-0.84,0.13-1.71,0.54-2.5c-0.11,0.22-0.68,0.32-0.87,0.5c-2.55,2.36-4.32,5.49-7.14,7.58
			c-0.19,0.14-0.4,0.25-0.58,0.4c-0.27,0.21,0.55-0.26,0.1-0.07c-0.11,0.05-0.22,0.11-0.34,0.16c-0.33,0.14-0.77,0.35-1.14,0.36
			c-0.02,0-0.21,0.05-0.22,0.04c-0.01-0.01,0.15-0.3,0.18-0.35c0.12-0.23,0.25-0.46,0.38-0.68c0.26-0.44,0.55-0.87,0.86-1.28
			c1.2-1.61,2.67-2.98,4.14-4.33c0.72-0.66,1.44-1.31,2.14-1.98c0.35-0.33,0.69-0.67,1.03-1.02c0.08-0.08,0.23-0.18,0.27-0.28
			c0.06-0.15,0.03-0.04-0.11-0.01c-0.26,0.07-0.53,0.21-0.78,0.32c-1.37,0.63-2.69,1.46-3.9,2.35c-1.6,1.19-3.09,2.53-4.74,3.65
			c-0.45,0.31-0.91,0.57-1.42,0.8c-0.14,0.06-0.47,0.27-0.6,0.25c-0.15-0.02-0.07-0.04-0.03-0.21c0.04-0.13,0.08-0.27,0.12-0.4
			c0.25-0.77,0.62-1.49,1.08-2.16c2.15-3.18,5.79-5.02,7.76-8.34c-0.07,0.12-0.44,0.25-0.55,0.31c-1.37,0.79-2.63,1.72-3.88,2.67
			c-0.72,0.55-1.44,1.11-2.19,1.62c-0.44,0.3-0.89,0.6-1.37,0.83c-0.21,0.1-0.42,0.2-0.63,0.29c-0.09,0.04-0.19,0.08-0.28,0.11
			c-0.09,0.04-0.19,0.07-0.28,0.11c-0.12,0.06-0.13,0.04-0.03-0.05c0.06-0.32,0.63-0.83,0.84-1.07c0.29-0.33,0.6-0.66,0.92-0.96
			c0.66-0.63,1.36-1.21,2.09-1.76c0.74-0.56,1.49-1.1,2.24-1.64c0.3-0.22,0.6-0.44,0.9-0.65c0.39-0.27-0.28,0.15,0.08-0.05
			c0.11-0.06,0.22-0.12,0.34-0.19c0.4-0.22,0.87-0.42,1.23-0.71c0.04-0.03,0.16-0.07,0.1-0.09c-0.14-0.05-0.68,0.28-0.8,0.33
			c-0.3,0.13-0.56,0.37-0.87,0.5c0.25-0.11,0.51-0.21,0.76-0.32c0.12-0.05,0.67-0.34,0.32-0.15c-0.48,0.26-0.95,0.53-1.42,0.81
			c-1.31,0.77-2.53,1.74-3.74,2.66c-0.78,0.59-1.53,1.22-2.23,1.91c-0.34,0.34-0.67,0.69-0.97,1.06c-0.16,0.19-0.31,0.38-0.45,0.58
			c-0.03,0.04-0.26,0.34-0.25,0.35c0.02,0.02,0.34-0.13,0.38-0.14c1.35-0.53,2.65-1.31,3.85-2.12c1.9-1.29,3.62-2.87,5.61-4.03
			c-0.18,0.1-0.37,0.21-0.55,0.31c-1.84,3.09-5.1,4.9-7.29,7.69c-0.55,0.7-1.02,1.45-1.35,2.27c-0.08,0.2-0.16,0.41-0.22,0.62
			c-0.03,0.11-0.06,0.21-0.09,0.32c-0.05,0.17-0.12,0.19,0.03,0.21c0.15,0.02,0.47-0.19,0.6-0.25c0.23-0.1,0.46-0.22,0.69-0.33
			c1.49-0.78,2.88-1.72,4.21-2.75c1.67-1.31,3.3-2.87,5.25-3.75c0.22-0.1,0.46-0.23,0.69-0.28c0.17-0.04,0.23-0.18,0.04,0.08
			c-0.07,0.1-0.19,0.2-0.27,0.28c-0.36,0.37-0.73,0.73-1.1,1.09c-0.78,0.74-1.57,1.45-2.36,2.18c-1.54,1.41-3.06,2.88-4.23,4.62
			c-0.29,0.43-0.55,0.87-0.79,1.33c-0.02,0.05-0.19,0.34-0.18,0.35c0.01,0.01,0.31-0.06,0.29-0.05c0.19-0.04,0.39-0.09,0.57-0.16
			c0.66-0.22,1.25-0.56,1.85-0.91c3.49-2.03,5.43-5.67,8.33-8.35c-0.29,0.17-0.58,0.33-0.87,0.5c-0.4,0.79-0.34,1.67-0.54,2.5
			C387.54,261.63,388.3,261.58,388.35,261.35L388.35,261.35z"/>
	</g>
</g>
<g>
	<g>
		<path d="M386.98,246.12c-2.31,1.66-4.29,3.7-6.31,5.69c-1.95,1.92-4.03,4.07-6.5,5.32c-0.2,0.1-0.52,0.47-0.43,0.08
			c0.02-0.1,0.09-0.22,0.13-0.32c0.12-0.29,0.26-0.57,0.4-0.85c0.3-0.58,0.66-1.13,1.04-1.66c0.73-1.01,1.58-1.93,2.46-2.81
			c1.78-1.79,3.73-3.44,5.28-5.44c0.34-0.44,0.67-0.9,0.96-1.38c0.16-0.26,0.31-0.53,0.45-0.8c0.09-0.17,0.21-0.2-0.01-0.17
			c-0.11,0.01-0.27,0.12-0.37,0.17c-0.74,0.36-1.47,0.79-2.15,1.25c-1.85,1.26-3.4,2.93-4.95,4.52c-1.61,1.66-3.22,3.26-5.13,4.58
			c-0.4,0.28,0.41-0.18-0.03,0.02c-0.12,0.05-0.24,0.12-0.36,0.18c-0.21,0.1-0.42,0.18-0.63,0.26c-0.5,0.18-1.02,0.31-1.56,0.37
			c-0.19,0.02-0.49,0.1-0.67,0.04c-0.21-0.07-0.1-0.07,0.01-0.26c0.08-0.14,0.17-0.29,0.26-0.43c0.39-0.61,0.82-1.2,1.28-1.76
			c2.07-2.51,4.71-4.44,7.17-6.53c0.3-0.25,0.6-0.51,0.9-0.77c0.15-0.13,0.51-0.27,0.09-0.19c-0.2,0.04-0.41,0.16-0.59,0.24
			c-0.57,0.25-1.12,0.54-1.66,0.85c-1.31,0.75-2.54,1.58-3.68,2.57c0.29-0.17,0.58-0.33,0.87-0.5c0.89-1.45,2.09-2.65,3.53-3.55
			c-0.28,0.16-0.57,0.33-0.85,0.49c-0.84,0.6,0.33-0.08-0.59,0.35c-0.13,0.06-0.25,0.11-0.38,0.17c-0.32,0.13-0.64,0.25-0.97,0.36
			c-0.32,0.11-0.65,0.2-0.97,0.29c0.03-0.01-0.38,0.12-0.39,0.11c-0.03-0.04,0.34-0.56,0.38-0.62c0.75-1.2,1.63-2.32,2.56-3.38
			c1.83-2.1,3.85-4.02,5.62-6.18c0.22-0.27,0.44-0.54,0.65-0.81c0.07-0.09,0.29-0.3,0.31-0.41c0.02-0.15-0.02-0.09-0.22-0.08
			c-0.51,0.02-1.01,0.1-1.5,0.21c-1.02,0.24-2,0.65-2.94,1.12c-1.86,0.93-3.62,2.06-5.32,3.25c-2.19,1.54-4.29,3.31-6.59,4.65
			c-0.13,0.08-0.32,0.15-0.43,0.25c0.11-0.1,0.31-0.17,0.44-0.25c1.87-1.08,3.6-2.36,5.35-3.64c2.19-1.6,4.4-3.3,6.93-4.34
			c0.96-0.39,1.96-0.69,3-0.76c0.1-0.01,0.26-0.04,0.35-0.01c0.23,0.07,0.09-0.02,0.02,0.17c-0.11,0.29-0.44,0.58-0.64,0.82
			c-0.48,0.6-0.98,1.17-1.49,1.74c-1.95,2.17-4.08,4.19-5.84,6.53c-0.48,0.63-0.93,1.29-1.34,1.97c-0.15,0.25-0.27,0.21,0.03,0.22
			c0.17,0.01,0.41-0.11,0.58-0.17c0.39-0.12,0.78-0.24,1.17-0.39c1.09-0.41,2.15-0.99,3.09-1.67c-0.26,0.19-0.58,0.32-0.85,0.49
			c-1.45,0.91-2.66,2.12-3.56,3.57c0.14-0.23,0.66-0.32,0.87-0.5c0.59-0.51,1.21-1,1.86-1.45c0.68-0.47,1.52-1.05,2.34-1.22
			c0.42-0.09,0.06,0.05-0.09,0.19c-0.1,0.09-0.2,0.17-0.3,0.26c-0.27,0.24-0.55,0.47-0.83,0.7c-0.58,0.49-1.17,0.97-1.76,1.45
			c-2.19,1.8-4.38,3.65-6.02,5.98c-0.19,0.27-0.37,0.55-0.55,0.83c-0.02,0.04-0.32,0.49-0.3,0.52c0.03,0.03,0.28,0,0.34,0
			c0.51-0.02,1.02-0.1,1.51-0.24c0.85-0.24,1.62-0.65,2.38-1.09c1.83-1.06,3.38-2.44,4.86-3.94c1.61-1.62,3.14-3.35,4.91-4.8
			c0.45-0.37,0.92-0.69,1.39-1.03c0.05-0.04,0.27-0.15,0,0c0.15-0.08,0.31-0.15,0.46-0.22c0.14-0.06,0.21-0.17,0.21-0.03
			c-0.01,0.15-0.2,0.39-0.27,0.52c-0.6,1.09-1.37,2.07-2.2,2.99c-1.69,1.87-3.63,3.48-5.32,5.34c-0.85,0.93-1.64,1.93-2.27,3.02
			c-0.24,0.41-0.7,1.06-0.74,1.54c-0.02,0.27-0.16,0.13,0.13,0.07c0.1-0.02,0.26-0.13,0.34-0.17c0.26-0.13,0.52-0.27,0.78-0.42
			c2.51-1.41,4.66-3.21,6.72-5.21c2.26-2.2,4.43-4.53,7.01-6.38C387.58,245.82,387.25,245.93,386.98,246.12L386.98,246.12z"/>
	</g>
</g>
<g>
	<g>
		<path d="M368.57,246.64c-0.51,0.16-0.99,0.37-1.45,0.63c-0.54,0.3-1.08,0.6-1.56,0.98c-0.83,0.65-1.47,1.49-1.91,2.44
			c0.01-0.01,0.13-0.07,0.13-0.07c0.1-0.06,0.2-0.12,0.31-0.18c0.1-0.06,0.2-0.12,0.31-0.18c0.03-0.02,0.11-0.05,0.13-0.08
			c0.36-0.77,0.85-1.48,1.47-2.06c0.31-0.29,0.64-0.54,1-0.77c-0.49,0.28-0.64,0.36-0.45,0.26c0.03-0.01,0.05-0.03,0.08-0.04
			c0.05-0.03,0.1-0.05,0.15-0.07c0.11-0.05,0.21-0.1,0.32-0.14c0.21-0.08,0.42-0.16,0.63-0.22c0.15-0.05,0.3-0.17,0.44-0.25
			C368.28,246.82,368.43,246.68,368.57,246.64L368.57,246.64z"/>
	</g>
</g>
<g>
	<g>
		<path d="M370.24,249.67c0.29,0,0.58-0.5,0.87-0.5C370.82,249.17,370.53,249.67,370.24,249.67L370.24,249.67z"/>
	</g>
</g>
<g>
	<g>
		<path d="M371.27,248.14c-2.42,1.55-4.7,3.4-7.33,4.6c-0.58,0.27-1.18,0.5-1.79,0.69c-0.12,0.03-0.24,0.07-0.35,0.1
			c-0.29,0.08-0.33,0.18-0.29-0.12c0.04-0.31,0.21-0.63,0.33-0.92c0.54-1.38,1.31-2.66,2.24-3.81c-0.19,0.24-0.66,0.27-0.87,0.5
			c-1.74,1.93-3.5,3.86-5.49,5.54c0.29-0.17,0.58-0.33,0.87-0.5c-0.01-0.95-0.5-1.83-0.67-2.75c-0.03-0.18,0.01-0.54-0.06-0.69
			c-0.08-0.16-0.52-0.09-0.73-0.07c-0.61,0.06-1.18,0.24-1.74,0.49c-0.3,0.14-0.57,0.36-0.87,0.5c0.52-0.24,1.06-0.42,1.63-0.48
			c0.13-0.01,0.76-0.12,0.84-0.02c0.06,0.07,0.04,0.66,0.06,0.77c0.17,0.92,0.66,1.8,0.67,2.75c0-0.1,0.76-0.41,0.87-0.5
			c1.99-1.68,3.75-3.61,5.49-5.54c-0.29,0.17-0.58,0.33-0.87,0.5c-1.11,1.38-1.98,2.94-2.53,4.63c-0.1,0.3-0.16,0.33,0.17,0.25
			c0.21-0.05,0.41-0.11,0.62-0.18c0.36-0.12,0.72-0.25,1.07-0.4c0.64-0.27,1.26-0.57,1.86-0.9c2.68-1.46,5.13-3.27,7.7-4.91
			C371.91,247.79,371.53,247.98,371.27,248.14L371.27,248.14z"/>
	</g>
</g>
<g>
	<g>
		<path d="M337.62,225.34c-0.65,0.32-1.33,0.51-2.06,0.5c-0.12,0-0.43,0.03-0.54-0.05c-0.15-0.11-0.08,0.03-0.04-0.15
			c0.03-0.16,0.2-0.36,0.28-0.5c0.4-0.65,0.87-1.24,1.38-1.81c1.25-1.42,2.69-2.69,4.17-3.87c1.68-1.34,3.45-2.6,5.31-3.67
			c0.82-0.47,1.67-0.9,2.54-1.27c0.62-0.27,1.37-0.64,2.06-0.71c0.24-0.02,0.17-0.02,0.03,0.15c-0.14,0.17-0.3,0.33-0.45,0.49
			c-0.31,0.31-0.63,0.6-0.97,0.88c-0.91,0.74-1.9,1.4-2.94,1.94c-2,1.03-4.13,1.85-6.32,2.39c-0.96,0.23-1.93,0.41-2.91,0.49
			c-0.36,0.03-0.92,0.14-1.26,0.03c-0.21-0.07-0.15,0.1-0.16-0.16c0-0.07,0.07-0.24,0.09-0.29c0.08-0.24,0.19-0.48,0.31-0.7
			c0.52-0.93,1.32-1.68,2.17-2.3c0.5-0.37,1.01-0.66,1.57-0.92c0.35-0.17,0.96-0.56,1.35-0.57c0.23-0.01,0.14-0.02,0.05,0.19
			c-0.07,0.16-0.14,0.31-0.23,0.46c-0.15,0.25-0.32,0.49-0.53,0.7c-0.07,0.07-0.16,0.14-0.23,0.21c-0.26,0.26,0.3-0.06-0.06,0.03
			c-0.26,0.06-0.5,0.15-0.77,0.18c-0.28,0.03-0.56,0.03-0.84,0.01c-0.14-0.01-0.32,0.01-0.32-0.1c0-0.08,0.17-0.24,0.22-0.31
			c0.3-0.38,0.67-0.7,1.06-0.98c0.12-0.08,0.24-0.16,0.35-0.24c0.4-0.28-0.35,0.17,0.09-0.06c0.27-0.14,0.54-0.27,0.82-0.4
			c0.49-0.22,1-0.42,1.5-0.61c0.66-0.24,1.34-0.45,2.02-0.65c0.31-0.09,0.56-0.41,0.87-0.5c-1.81,0.54-3.56,1.19-5.2,2.13
			c-0.84,0.49-1.71,0.99-2.34,1.76c-0.06,0.07-0.2,0.21-0.23,0.31c-0.05,0.2,0.07,0.13,0.29,0.15c0.33,0.03,0.67,0.02,1-0.03
			c0.49-0.08,0.92-0.28,1.34-0.53c0.36-0.2,0.73-0.4,1.05-0.66c0.24-0.2,0.45-0.44,0.63-0.7c0.08-0.11,0.53-0.85,0.45-0.91
			c-0.07-0.06-0.78,0.31-0.88,0.35c-0.26,0.11-0.51,0.23-0.77,0.35c-0.5,0.24-0.98,0.51-1.46,0.79c-1.03,0.59-2.03,1.23-2.87,2.08
			c-0.42,0.42-0.79,0.9-1.06,1.42c-0.11,0.22-0.34,0.6-0.33,0.86c0.02,0.27-0.08,0.08,0.1,0.15c0.13,0.05,0.4,0.01,0.54,0.01
			c2.59-0.03,5.19-0.82,7.58-1.79c2.18-0.89,4.33-2.02,6.25-3.39c0.46-0.33,0.9-0.68,1.32-1.05c0.15-0.13,1.2-1.03,1.13-1.18
			c-0.08-0.17-2.28,0.77-2.49,0.86c-1.95,0.87-3.82,1.98-5.61,3.14c-2.33,1.52-4.57,3.22-6.57,5.16c-0.84,0.82-1.66,1.69-2.34,2.65
			c-0.13,0.18-0.8,0.99-0.73,1.2c0.06,0.19,1.32,0.02,1.49-0.01c0.44-0.08,0.85-0.25,1.25-0.44
			C337.05,225.69,337.41,225.45,337.62,225.34L337.62,225.34z"/>
	</g>
</g>
<g>
	<g>
		<path d="M352.49,211.13c3.81-1.67,8.13-2.25,12.25-1.63c0.51,0.08,1.01,0.17,1.51,0.29c0.23,0.05,0.46,0.11,0.69,0.17
			c0.31,0.08,0.31,0.08,0.2,0.38c-0.24,0.72-0.72,1.32-1.31,1.78c-0.12,0.09-0.24,0.17-0.36,0.25c0.48-0.27,0.58-0.33,0.3-0.18
			c-0.19,0.09-0.37,0.17-0.56,0.25c-0.4,0.16-0.82,0.28-1.23,0.38c-0.77,0.18-1.57,0.27-2.36,0.3c-0.29,0.17-0.58,0.33-0.87,0.5
			c2.89-1.08,5.93-1.68,8.98-2.07c0.73-0.09,1.45-0.18,2.18-0.25c0.39-0.04,0.78-0.08,1.18-0.11c0.03,0,0.53-0.05,0.53-0.04
			c0.01,0.05-0.32,0.3-0.37,0.35c-0.13,0.11-0.26,0.22-0.39,0.32c-0.06,0.04-0.71,0.47-0.35,0.26c-0.34,0.2-0.73,0.36-1.1,0.51
			c-0.69,0.28-1.41,0.52-2.12,0.74c-0.21,0.07-0.67,0.54-0.87,0.5c2.42,0.47,5.09-0.11,7.4,0.87c0.19,0.08,0.69-0.58,0.87-0.5
			c-2.31-0.97-4.98-0.4-7.4-0.87c-0.29,0.17-0.58,0.33-0.87,0.5c1.41-0.44,2.75-0.96,4.03-1.7c0.55-0.32,1.1-0.65,1.59-1.06
			c0.03-0.02,0.46-0.38,0.44-0.41c-0.01-0.02-0.6,0.05-0.63,0.05c-0.47,0.04-0.93,0.09-1.4,0.13c-3.67,0.38-7.37,0.99-10.84,2.29
			c-0.26,0.1-0.6,0.49-0.87,0.5c1.38-0.06,2.78-0.28,4.04-0.87c0.93-0.44,1.95-1,2.61-1.8c0.2-0.25,0.38-0.53,0.51-0.82
			c0.05-0.12,0.15-0.3,0.16-0.43c0.01-0.18,0.08-0.06-0.06-0.18c-0.07-0.06-0.3-0.08-0.39-0.11c-0.9-0.23-1.81-0.4-2.73-0.5
			c-1.82-0.21-3.66-0.18-5.47,0.06c-2.09,0.27-4.13,0.83-6.05,1.67C353.05,210.76,352.79,210.99,352.49,211.13L352.49,211.13z"/>
	</g>
</g>
<g>
	<g>
		<path d="M379.88,215.18c3.32-0.48,6.64-1.49,10.03-1.18c1.57,0.14,3.17,0.62,4.3,1.77c0.05,0.05,0.18,0.15,0.2,0.22
			c0.09,0.2,0.13-0.02-0.02,0.22c-0.1,0.15-0.37,0.27-0.51,0.38c-0.4,0.3,0.38-0.14,0.07-0.03c-0.15,0.05-0.29,0.14-0.44,0.21
			c-0.23,0.1-0.47,0.2-0.71,0.28c-0.89,0.32-1.82,0.53-2.76,0.7c-2.08,0.37-4.19,0.49-6.27,0.87c-0.22,0.04-0.67,0.55-0.87,0.5
			c4.08,1.08,8.34,0.54,12.48,1.16c0.29-0.17,0.58-0.33,0.87-0.5c-0.6-0.03-1.25,0.18-1.78,0.46c-0.23,0.12-0.72,0.52-0.91,0.54
			c0.3-0.03,0.57-0.47,0.87-0.5c-0.35,0.03-1.05,0.51-0.49,0.31c0.14-0.05,0.27-0.1,0.41-0.15c0.34-0.11,0.68-0.18,1.04-0.16
			c0.27,0.02,0.61-0.54,0.87-0.5c-4.14-0.62-8.4-0.07-12.48-1.16c-0.29,0.17-0.58,0.33-0.87,0.5c2.05-0.37,4.13-0.49,6.18-0.85
			c1.82-0.32,3.47-0.87,5.07-1.81c0.29-0.17,0.58-0.34,0.85-0.55c0.05-0.04,0.21-0.14,0.25-0.2c0.15-0.24,0.11-0.02,0.02-0.22
			c-0.08-0.18-0.38-0.39-0.53-0.52c-0.67-0.57-1.48-0.95-2.32-1.18c-1.81-0.5-3.76-0.38-5.61-0.15c-2.04,0.26-4.05,0.75-6.09,1.04
			C380.44,214.73,380.18,215.14,379.88,215.18L379.88,215.18z"/>
	</g>
</g>
<g>
	<g>
		<path d="M377.2,215.19c-2.25,0.4-4.53,0.59-6.81,0.79c-0.29,0.17-0.58,0.33-0.87,0.5c3.77-0.58,7.65-1.28,11.44-0.48
			c0.19,0.04,0.73-0.58,0.87-0.5c-1.97-1.18-4.36-0.87-6.55-0.93c-0.29,0.17-0.58,0.33-0.87,0.5c2.47-0.43,4.99-0.46,7.42-1.07
			c0.27-0.07,0.6-0.51,0.87-0.5c-3.4-0.07-6.77,0.39-10.07,1.18c-0.31,0.07-0.56,0.43-0.87,0.5c3.3-0.79,6.67-1.25,10.07-1.18
			c0.29-0.17,0.58-0.33,0.87-0.5c-2.44,0.6-4.96,0.63-7.42,1.07c-0.28,0.05-0.59,0.51-0.87,0.5c2.19,0.06,4.58-0.25,6.55,0.93
			c0.29-0.17,0.58-0.33,0.87-0.5c-3.79-0.8-7.67-0.1-11.44,0.48c-0.3,0.05-0.57,0.47-0.87,0.5c2.28-0.19,4.56-0.39,6.81-0.79
			C376.64,215.64,376.89,215.24,377.2,215.19L377.2,215.19z"/>
	</g>
</g>
<g>
	<g>
		<path d="M400.17,222.28c4.13,0.58,8.27,1.2,12.35,2.07c0.29-0.17,0.58-0.33,0.87-0.5c-3.77,0.03-7.52-0.76-11.29-0.47
			c-0.18,0.01-0.73,0.57-0.87,0.5c1.45,0.75,2.88,1.53,4.45,2.03c0.21,0.07,0.67-0.58,0.87-0.5c-2.56-1.01-5.28-1.58-8.04-1.53
			c-0.19,0-0.72,0.57-0.87,0.5c5.35,2.74,12.99,3.33,16.15,9.13c0.29-0.17,0.58-0.33,0.87-0.5c-1.54,0.07-3.03,0.14-4.36-0.76
			c-0.29,0.17-0.58,0.33-0.87,0.5c3.51,0.98,5.37,5.09,5.57,8.45c-0.01-0.14,0.8-0.34,0.87-0.5c0.13-0.35,0.3-0.67,0.5-0.99
			c-0.29,0.17-0.58,0.33-0.87,0.5c0.91,2.18,1.36,4.5,1.8,6.82c-0.02-0.11,0.83-0.36,0.87-0.5c0.54-1.88,0.62-3.85,1-5.76
			c-0.29,0.17-0.58,0.33-0.87,0.5c0.49,2.43,0.62,4.94,1.45,7.3c-0.03-0.07,0.87-0.39,0.87-0.5c-0.06-0.99-0.11-1.98-0.15-2.97
			c-0.29,0.17-0.58,0.33-0.87,0.5c0.19,2.69-0.01,5.39-0.62,8.03c0.29-0.17,0.58-0.33,0.87-0.5c-0.32-0.71-0.78-1.34-1.04-2.09
			c0.03,0.07-0.85,0.39-0.87,0.5c-0.31,2.94-1.02,5.81-1.64,8.69c0.29-0.17,0.58-0.33,0.87-0.5c-0.53-1.56-1.02-3.08-1-4.74
			c0,0.17-0.82,0.31-0.87,0.5c-0.49,2.06-0.41,4.18-0.48,6.28c0.29-0.17,0.58-0.33,0.87-0.5c-0.3-0.53-0.67-1.03-0.97-1.56
			c0.02,0.03-0.87,0.42-0.87,0.5c0.04,0.97,0.19,1.93,0.25,2.89c0.03,0.49,0.25,1.95-0.3,2.28c0.27-0.15,0.54-0.31,0.81-0.46
			c-0.13,0.05-0.23,0.03-0.36-0.01c-0.21-0.07-0.67,0.57-0.87,0.5c0.4,0.14,0.89-0.24,1.19-0.47c0.36-0.26,0.39-0.71,0.41-1.13
			c0.08-1.37-0.22-2.73-0.27-4.1c-0.29,0.17-0.58,0.33-0.87,0.5c0.3,0.53,0.66,1.03,0.97,1.56c-0.02-0.03,0.86-0.42,0.87-0.5
			c0.07-2.1,0-4.22,0.48-6.28c-0.29,0.17-0.58,0.33-0.87,0.5c-0.01,1.66,0.48,3.18,1,4.74c-0.03-0.07,0.84-0.39,0.87-0.5
			c0.62-2.88,1.34-5.75,1.64-8.69c-0.29,0.17-0.58,0.33-0.87,0.5c0.26,0.74,0.72,1.37,1.04,2.09c-0.02-0.05,0.84-0.4,0.87-0.5
			c0.61-2.63,0.81-5.33,0.62-8.03c0.01,0.14-0.87,0.34-0.87,0.5c0.05,0.99,0.09,1.98,0.15,2.97c0.29-0.17,0.58-0.33,0.87-0.5
			c-0.83-2.36-0.96-4.86-1.45-7.3c0.02,0.11-0.84,0.36-0.87,0.5c-0.39,1.91-0.46,3.88-1,5.76c0.29-0.17,0.58-0.33,0.87-0.5
			c-0.44-2.31-0.89-4.63-1.8-6.82c0.02,0.04-0.81,0.42-0.87,0.5c-0.2,0.32-0.36,0.64-0.5,0.99c0.29-0.17,0.58-0.33,0.87-0.5
			c-0.2-3.36-2.06-7.47-5.57-8.45c-0.17-0.05-0.74,0.58-0.87,0.5c1.33,0.9,2.83,0.84,4.36,0.76c0.09,0,0.86-0.51,0.87-0.5
			c-3.16-5.81-10.8-6.39-16.15-9.13c-0.29,0.17-0.58,0.33-0.87,0.5c2.76-0.05,5.48,0.52,8.04,1.53c0.29-0.17,0.58-0.33,0.87-0.5
			c-1.56-0.49-3-1.27-4.45-2.03c-0.29,0.17-0.58,0.33-0.87,0.5c3.78-0.29,7.52,0.5,11.29,0.47c0.26,0,0.63-0.55,0.87-0.5
			c-4.09-0.86-8.22-1.48-12.35-2.07C400.77,221.75,400.42,222.32,400.17,222.28L400.17,222.28z"/>
	</g>
</g>
<g>
	<g>
		<path d="M400.02,222.29c-1.97,0.02-3.92,0.28-5.89,0.35c-0.28,0.16-0.57,0.33-0.85,0.49c1.18-0.61,2.26-1.44,3.51-1.91
			c0.28-0.11,0.57-0.46,0.87-0.5c-1.45,0.22-2.92,0.34-4.37,0.59c-0.31,0.05-0.56,0.45-0.87,0.5c1.53-0.23,3.06-0.53,4.57-0.85
			c0.29-0.17,0.58-0.33,0.87-0.5c-2.82,0.71-5.73,0.83-8.59,1.35c-0.3,0.05-0.57,0.47-0.87,0.5c3.31-0.35,7,0.19,10.05,1.51
			c0.29-0.17,0.58-0.33,0.87-0.5c-0.9,0.22-1.8,0.43-2.73,0.53c-0.29,0.17-0.58,0.33-0.87,0.5c2.44-0.46,4.86-1.11,7.37-1.05
			c0.29-0.17,0.58-0.33,0.87-0.5c-1.21,0.21-2.28-0.03-3.4-0.49c-0.24-0.1-0.47-0.23-0.72-0.3c-0.23-0.07-0.45,0.07-0.16-0.14
			c0.11-0.08,0.26-0.13,0.38-0.2c0.38-0.2,0.75-0.42,1.12-0.64c0.03-0.02,0.09-0.06,0.13-0.08c-0.76,0.29-1.57,0.76-2.15,1.33
			c0.23-0.23,0.64-0.27,0.87-0.5c0.11-0.11,0.25-0.21,0.36-0.33c0.18-0.19-0.42,0.18,0.06-0.01c0.04-0.03,0.08-0.05,0.13-0.08
			c0.2-0.12,0.11-0.07-0.04,0.01c-0.12,0.06-0.25,0.13-0.37,0.19c-0.15,0.08-0.29,0.16-0.44,0.25c-0.33,0.19-0.65,0.37-0.97,0.58
			c0,0-0.01,0.01-0.01,0.01c1.48,0.57,2.75,1.17,4.37,0.89c0.28-0.05,0.59-0.51,0.87-0.5c-2.5-0.07-4.93,0.58-7.37,1.05
			c-0.3,0.06-0.57,0.47-0.87,0.5c0.93-0.1,1.82-0.31,2.73-0.53c0.17-0.04,0.73-0.56,0.87-0.5c-3.06-1.32-6.75-1.86-10.05-1.51
			c-0.29,0.17-0.58,0.33-0.87,0.5c2.85-0.51,5.77-0.64,8.59-1.35c0.31-0.08,0.56-0.44,0.87-0.5c-1.52,0.32-3.04,0.62-4.57,0.85
			c-0.29,0.17-0.58,0.33-0.87,0.5c1.45-0.25,2.92-0.37,4.37-0.59c0.29-0.17,0.58-0.33,0.87-0.5c-1.27,0.48-2.34,1.31-3.54,1.92
			c-0.21,0.11-0.62,0.48-0.85,0.49c1.97-0.06,3.92-0.33,5.89-0.35C399.45,222.79,399.73,222.29,400.02,222.29L400.02,222.29z"/>
	</g>
</g>
</svg>
