<?xml version="1.0" encoding="utf-8"?>
<!-- Generator: Adobe Adobe Illustrator 24.2.0, SVG Export Plug-In . SVG Version: 6.00 Build 0)  -->
<svg version="1.1" id="Layer_1" xmlns="http://www.w3.org/2000/svg" xmlns:xlink="http://www.w3.org/1999/xlink" x="0px" y="0px"
	 width="100px" height="100px" viewBox="0 0 100 100" style="enable-background:new 0 0 100 100;" xml:space="preserve">
<style type="text/css">
	.st0{fill:#FFFFFF;stroke:#000000;stroke-width:0.25;stroke-miterlimit:10;}
</style>
<path class="st0" d="M48.92,28.29c-4.81,5.04-9.9,9.82-15.24,14.3c0.25-0.07,0.49-0.15,0.74-0.22"/>
<path class="st0" d="M47.78,30.77c-4.37,4.45-8.81,8.83-13.32,13.14c0.19-0.07,0.37-0.15,0.56-0.22"/>
<path class="st0" d="M34.33,45.06c6.29,3.03,12.11,7.02,17.2,11.8c-0.3-0.46-0.6-0.92-0.89-1.38"/>
<path class="st0" d="M35.75,44.24c5.64,2.85,11.47,5.86,15.34,10.85c-0.08-0.21-0.16-0.42-0.25-0.62"/>
<path class="st0" d="M50.64,55.39c-0.64-1.63-1.11-3.33-1.39-5.06c-1.16-7.07,0.76-14.32,1.04-21.38
	C49.44,37.37,49.51,45.89,50.64,55.39z"/>
<path class="st0" d="M50.62,28.34c-0.55,9.45-0.26,18.96,0.87,28.36"/>
<path class="st0" d="M48.96,28.87c0.3-0.77,0.75-1.47,1.32-2.07C48.94,28.59,48.21,30.77,48.96,28.87z"/>
<path class="st0" d="M46.09,32.47c1.76-1.37,3.32-3,4.15-5.34c5.22,1.63,9.55,5.9,11.25,11.1c0.16,0.5,0.31,1.03,0.23,1.55
	c-0.11,0.83-0.75,1.5-1.42,2.01c-1.21,0.93-2.96,1.57-4.23,0.71c-0.46-0.31-0.79-0.78-1-1.29c-0.7-1.63-0.14-3.77,1.4-4.65
	c1.54-0.88,3.85-0.07,4.3,1.65"/>
<path class="st0" d="M50.46,27.6c-0.51,2.12-0.6,4.34-0.88,6.63C49.42,32.11,49.68,29.96,50.46,27.6z"/>
<path class="st0" d="M51.05,35.35c-1.06-2.48-0.84-5.29-1.09-7.34c4.8,1.24,8.98,4.66,11.16,9.11c0.11,0.22,0.21,0.48,0.08,0.69"/>
<path class="st0" d="M51.37,29.02c3.7,1.21,7.38,3.39,8.95,6.96c0.6,1.35,0.84,2.96,0.19,4.3c-0.65,1.33-2.39,2.16-3.69,1.46
	l0.79,1.75"/>
<path class="st0" d="M58.62,42.16c-1.46-0.06-3.05-0.89-3.35-2.32c-0.16-0.78,0.09-1.61,0.58-2.23c0.5-0.62,1.22-1.03,1.98-1.25
	c0.6-0.17,1.28-0.21,1.82,0.11c0.59,0.35,0.89,1.07,0.91,1.76c0.02,0.69-0.19,1.36-0.39,2.02c-0.03,0.1-0.07,0.21-0.17,0.24
	S59.79,40.39,58.62,42.16z"/>
<path class="st0" d="M35.09,27.19c10.77,0.3,21.57-0.62,32.13-2.75"/>
<path class="st0" d="M36.02,25.84c10.19,1.1,20.55,0.52,30.55-1.71"/>
<path class="st0" d="M34.21,42.94c-0.4,0.27-0.8,0.55-1.2,0.82c4.15-3.06,8.05-6.46,11.64-10.16"/>
<path class="st0" d="M33.98,44.5c6.61,2.21,12.66,6.07,17.45,11.12"/>
</svg>
