<?xml version="1.0" encoding="utf-8"?>
<!-- Generator: Adobe Adobe Illustrator 24.2.0, SVG Export Plug-In . SVG Version: 6.00 Build 0)  -->
<svg version="1.1" id="Layer_1" xmlns="http://www.w3.org/2000/svg" xmlns:xlink="http://www.w3.org/1999/xlink" x="0px" y="0px"
	 width="612px" height="792px" viewBox="0 0 612 792" style="enable-background:new 0 0 612 792;" xml:space="preserve">
<style type="text/css">
	.st0{fill:none;stroke:#000000;stroke-miterlimit:10;}
</style>
<path class="st0" d="M247.24,225.89c13.91-1.07,27.93-0.58,41.73,1.45c5.88,0.87,11.8,2.04,17.13,4.68
	c2.32,1.15,4.79,3.08,4.63,5.67c-0.11,1.76-1.45,3.19-2.88,4.23c-6.05,4.38-14.17,4.16-21.63,3.75c-15.67-0.85-31.33-1.71-47-2.56
	c-6.72-0.37-13.95-0.93-19.11-5.24c-0.89-0.75-1.76-1.76-1.65-2.92c0.13-1.35,1.51-2.19,2.74-2.77
	C229.55,228.25,238.74,226.54,247.24,225.89z"/>
<path class="st0" d="M299.07,247.57c-22.98,1.38-46.13,0.06-68.8-3.93"/>
<path class="st0" d="M218.53,236.7c6.11,23.25,12.13,46.66,14.26,70.61c2.13,23.95,0.2,48.66-9.11,70.83"/>
<path class="st0" d="M225.54,252.13c5.54,25.45,9.24,51.3,11.03,77.29"/>
<path class="st0" d="M309.9,239.93c-10.5,31.59-16.98,64.52-19.21,97.74c-0.54,7.97-0.83,16.01,0.27,23.92
	c1.1,7.91,3.65,15.75,7.17,24.25c-1.86,4.69-7.77,6.03-12.79,6.46c-18.06,1.54-36.39-0.28-53.79-5.35
	c-2.38-0.69-4.92-1.57-6.32-3.62c-1.4-2.04-0.78-5.55,1.64-6.08"/>
<path class="st0" d="M305.85,245.83c-4.35,12.76-7.8,25.83-10.32,39.08"/>
<path class="st0" d="M221.62,381.57c-0.09,3.44,2.32,6.57,5.31,8.29s6.47,2.29,9.88,2.78c11.67,1.67,23.43,2.69,35.21,3.05
	c9.48,0.29,19.99-0.23,26.81-6.83"/>
<path class="st0" d="M268.21,288.58c0.61-0.92,1.24-1.88,1.41-2.97c0.17-1.09-0.28-2.36-1.29-2.8c-1.22-0.52-2.57,0.33-3.57,1.21
	c-5.19,4.57-8.6,11.11-9.38,17.98c-0.1,0.86-0.15,1.74,0.1,2.57s0.87,1.59,1.71,1.79c1.29,0.31,2.47-0.74,3.39-1.71
	c1.83-1.93,3.65-3.85,5.48-5.78"/>
<path class="st0" d="M269.71,289.3c1.14-1.36,2.15-2.91,2.46-4.66c0.31-1.75-0.2-3.73-1.62-4.79c-1.15-0.86-2.72-1.01-4.11-0.67
	s-2.64,1.11-3.8,1.96c-7.55,5.51-12.16,14.83-11.97,24.17"/>
<path class="st0" d="M266.35,300.49c-1.61,4.81-5.67,8.72-10.53,10.15c-1.24,0.37-2.81,0.48-3.62-0.53
	c-0.38-0.48-0.5-1.11-0.58-1.71c-0.16-1.33-0.13-2.68,0.07-4"/>
<path class="st0" d="M274.31,299.98c-1.62,1.06-3.01,2.49-4.01,4.15c-0.28,0.46-0.53,0.95-0.56,1.48s0.23,1.11,0.72,1.31
	c0.49,0.2,1.17-0.15,1.16-0.68"/>
<path class="st0" d="M270.31,309.81c-0.98,0.15-1.96,0.31-2.94,0.46c-1.59-3.98-0.58-8.86,2.44-11.89c0.87-0.87,1.91-1.61,3.1-1.92
	s2.54-0.17,3.51,0.58c1.33,1.01,1.72,2.85,1.59,4.51C277.71,305.75,274.47,309.15,270.31,309.81z"/>
<path class="st0" d="M276.12,300.49c0.62,2.57-0.73,5.48-3.1,6.67"/>
<path class="st0" d="M286.58,282.98c-3,9.54-6,19.08-9,28.62"/>
<path class="st0" d="M288.66,284.21c-2.56,5.92-4.68,12.02-6.36,18.24"/>
<path class="st0" d="M292.15,291.18c-2.4,3.27-5.09,6.32-8.04,9.1"/>
<path class="st0" d="M290.8,295.26c-1.68,2.46-3.81,4.61-6.26,6.31"/>
<path class="st0" d="M281.57,304.55c-1.37,3.96-2.75,7.93-4.12,11.89"/>
<path class="st0" d="M283.37,303.39c-0.26,4.48,1.41,9.04,4.51,12.28"/>
<path class="st0" d="M288.92,313.66c-1.51-0.57-2.08-2.37-2.42-3.95c-0.4-1.81-0.75-3.63-1.07-5.45c-0.28-0.08-0.52-0.29-0.64-0.56"
	/>
<path class="st0" d="M294.06,296.19c-3.61,2.59-5.86,6.97-5.85,11.41c0,0.62,0.05,1.25,0.31,1.81s0.77,1.04,1.39,1.11
	c1.02,0.11,1.8-0.86,2.36-1.73"/>
<path class="st0" d="M292.5,301.54c-1.72,1.75-2.59,4.29-2.31,6.73"/>
</svg>
