<?xml version="1.0" encoding="utf-8"?>
<!-- Generator: Adobe Adobe Illustrator 24.2.0, SVG Export Plug-In . SVG Version: 6.00 Build 0)  -->
<svg version="1.1" id="Layer_1" xmlns="http://www.w3.org/2000/svg" xmlns:xlink="http://www.w3.org/1999/xlink" x="0px" y="0px"
	 width="350px" height="350px" viewBox="0 0 350 350" style="enable-background:new 0 0 350 350;" xml:space="preserve">
<g>
	<g>
		<path d="M148.52,145.11c1.1-2.3,2.35-4.58,4.13-6.42c0.4-0.41,0.82-0.8,1.27-1.15c0.24-0.19,0.49-0.37,0.74-0.54
			c0.06-0.04,0.51-0.29,0.11-0.08c0.18-0.1,0.37-0.19,0.56-0.27c1.2-0.55,2.49-0.86,3.79-0.99c5.19-0.5,10.46,2.97,11.87,8.03
			c1.42,5.08-1.7,10.15-6.12,12.57c-3.91,2.14-9.82,3.44-13.63,0.45c-4.01-3.13-4.08-9.23-3.27-13.78c-0.04,0.21-0.83,0.28-0.87,0.5
			c-0.79,4.45-0.75,10.3,2.96,13.53c3.9,3.39,10.07,1.9,14.16-0.32c2.17-1.18,4.22-2.58,5.74-4.55c1.66-2.15,2.52-4.84,2.16-7.56
			c-0.75-5.64-6.36-9.86-11.96-9.39c-2.69,0.22-5.29,1.37-7.36,3.09c-2.34,1.95-3.87,4.67-5.16,7.38
			C147.77,145.37,148.4,145.36,148.52,145.11L148.52,145.11z"/>
	</g>
</g>
<g>
	<g>
		<path d="M153.65,140.7c-3.11,2.64-6.22,6.57-4.91,10.9c-0.02-0.07,0.89-0.42,0.87-0.5c-1.31-4.33,1.79-8.26,4.91-10.9
			C154.27,140.42,153.9,140.49,153.65,140.7L153.65,140.7z"/>
	</g>
</g>
<g>
	<g>
		<path d="M148.74,140.7c0.29,0,0.58-0.5,0.87-0.5C149.32,140.2,149.03,140.7,148.74,140.7L148.74,140.7z"/>
	</g>
</g>
<g>
	<g>
		<path d="M147.98,139.66c-3.67-4.06-6.42-8.89-8.43-13.97c-2.1-5.29-3.44-10.9-3.99-16.56c-0.3-3.08-0.35-6.18-0.12-9.27
			c-0.01,0.18-0.85,0.31-0.87,0.5c-0.42,5.53,0.08,11.11,1.27,16.52c1.22,5.53,3.17,10.93,5.96,15.86c1.5,2.65,3.26,5.16,5.31,7.42
			C147.16,140.22,147.93,139.61,147.98,139.66L147.98,139.66z"/>
	</g>
</g>
<g>
	<g>
		<path d="M137.62,99.86c0.02-7.89,1.73-15.59,3.2-23.29c0.43-2.22,0.82-4.45,1.16-6.69c-0.03,0.2-0.83,0.29-0.87,0.5
			c-1.15,7.74-3.15,15.34-3.98,23.13c-0.24,2.28-0.38,4.56-0.38,6.85C136.75,100.2,137.62,100.04,137.62,99.86L137.62,99.86z"/>
	</g>
</g>
<g>
	<g>
		<path d="M135.98,97.14c1.26-8,1.82-16.12,3.82-23.99c-0.06,0.22-0.81,0.27-0.87,0.5c-1.99,7.87-2.56,15.99-3.82,23.99
			C135.15,97.44,135.95,97.35,135.98,97.14L135.98,97.14z"/>
	</g>
</g>
<g>
	<g>
		<path d="M144.93,75.28c5.45,7.31,10.58,14.92,14.55,23.15c3.73,7.74,6.35,16.05,7.37,24.6c0.49,4.16,0.74,8.9-1.2,12.76
			c0.12-0.25,0.74-0.25,0.87-0.5c1.72-3.41,1.69-7.53,1.36-11.25c-0.35-3.95-1.13-7.9-2.14-11.73c-2.34-8.81-6.35-17.08-11.15-24.8
			c-2.72-4.38-5.7-8.6-8.78-12.73C145.77,74.75,144.95,75.31,144.93,75.28L144.93,75.28z"/>
	</g>
</g>
<g>
	<g>
		<path d="M170.33,132.03c5.51-9.21,14.59-15.38,23.96-20.19c2.6-1.34,5.24-2.6,7.89-3.84c0.3-0.14,0.57-0.36,0.87-0.5
			c-9.82,4.62-20,9.59-27.69,17.44c-2.25,2.3-4.24,4.83-5.88,7.59C169.61,132.28,170.18,132.28,170.33,132.03L170.33,132.03z"/>
	</g>
</g>
<g>
	<g>
		<path d="M199.45,109.08c7.71-1.88,15.69-2.18,23.44-3.82c0.31-0.07,0.56-0.44,0.87-0.5c-7.76,1.63-15.73,1.94-23.44,3.82
			C200,108.66,199.75,109.01,199.45,109.08L199.45,109.08z"/>
	</g>
</g>
<g>
	<g>
		<path d="M226.72,104.17c1.54-0.77,3.19-1.32,4.89-1.63c0.14-0.02,0.31-0.18,0.44-0.25c0.1-0.06,0.2-0.12,0.31-0.18
			c0.03-0.02,0.09-0.07,0.13-0.08c-1.71,0.31-3.37,0.87-4.92,1.64c-0.18,0.09-0.36,0.2-0.53,0.3c-0.09,0.05-0.17,0.1-0.26,0.15
			C226.75,104.15,226.68,104.19,226.72,104.17L226.72,104.17z"/>
	</g>
</g>
<g>
	<g>
		<path d="M233.25,107.45c-3.76,7.27-8.91,13.69-13.08,20.72c0.15-0.25,0.72-0.25,0.87-0.5c4.17-7.03,9.32-13.44,13.08-20.72
			C233.99,107.2,233.38,107.2,233.25,107.45L233.25,107.45z"/>
	</g>
</g>
<g>
	<g>
		<path d="M221.25,123.8c-2.33,4.17-5.38,7.85-8.88,11.09c-3.38,3.12-7.1,5.83-10.8,8.55c-2.19,1.6-4.37,3.21-6.49,4.9
			c0.26-0.2,0.61-0.29,0.87-0.5c7.27-5.76,15.4-10.64,21.47-17.77c1.78-2.09,3.36-4.36,4.7-6.76
			C221.98,123.55,221.39,123.55,221.25,123.8L221.25,123.8z"/>
	</g>
</g>
<g>
	<g>
		<path d="M174.91,148.34c5.7,0.07,11.49-0.25,16.9-2.18c0.31-0.11,0.56-0.39,0.87-0.5c-5.41,1.93-11.2,2.25-16.9,2.18
			C175.49,147.83,175.2,148.34,174.91,148.34L174.91,148.34z"/>
	</g>
</g>
<g>
	<g>
		<path d="M176.55,148.88c4.29,0.21,8.61,0.13,12.86-0.57c4.23-0.7,8.32-2.01,12.22-3.79c0.3-0.14,0.56-0.36,0.87-0.5
			c-3.9,1.78-7.99,3.09-12.22,3.79c-4.25,0.7-8.56,0.78-12.86,0.57C177.13,148.37,176.82,148.9,176.55,148.88L176.55,148.88z"/>
	</g>
</g>
<g>
	<g>
		<path d="M225.61,104.72c2.35-0.94,4.74-1.77,7.09-2.73c0.31-0.12,0.56-0.38,0.87-0.5c-2.35,0.95-4.74,1.79-7.09,2.73
			C226.17,104.35,225.92,104.6,225.61,104.72L225.61,104.72z"/>
	</g>
</g>
<g>
	<g>
		<path d="M226.7,105.27c2.77-1.02,5.55-2,7.95-3.77c-0.27,0.2-0.6,0.3-0.87,0.5c-0.26,0.19-0.53,0.38-0.81,0.55
			c-0.13,0.08-0.14,0.09-0.02,0.02c-0.05,0.03-0.11,0.06-0.16,0.09c-0.13,0.07-0.26,0.13-0.38,0.2c-0.53,0.26-1.07,0.5-1.62,0.72
			c-1.06,0.43-2.15,0.8-3.22,1.2C227.26,104.88,227.01,105.16,226.7,105.27L226.7,105.27z"/>
	</g>
</g>
<g>
	<g>
		<path d="M235.43,100.91c0.36-0.05,0.72-0.14,1.05-0.29c0.21-0.09,0.41-0.21,0.6-0.32c0.25-0.14,0.51-0.28,0.75-0.45
			c0.57-0.39,0.96-0.97,1.18-1.61c0,0.01-0.14,0.08-0.13,0.07c-0.1,0.06-0.2,0.12-0.31,0.18c-0.1,0.06-0.2,0.12-0.31,0.18
			c-0.02,0.01-0.12,0.05-0.13,0.08c-0.19,0.54-0.49,1.04-0.92,1.41c-0.1,0.09-0.22,0.17-0.33,0.25c-0.14,0.09-0.04,0.03,0.3-0.17
			c0.34-0.19,0.44-0.25,0.3-0.17c-0.04,0.02-0.07,0.04-0.11,0.05c-0.07,0.03-0.13,0.06-0.2,0.08c-0.29,0.11-0.58,0.18-0.89,0.22
			c-0.03,0-0.11,0.06-0.13,0.07c-0.1,0.06-0.2,0.12-0.31,0.18s-0.2,0.12-0.31,0.18C235.52,100.85,235.46,100.9,235.43,100.91
			L235.43,100.91z"/>
	</g>
</g>
<g>
	<g>
		<path d="M235.2,105.31c1.46-2.54,2.46-5.37,4.36-7.63c-0.2,0.24-0.66,0.26-0.87,0.5c-1.9,2.27-2.9,5.09-4.36,7.63
			c0.05-0.09,0.34-0.19,0.44-0.25C234.88,105.51,235.14,105.42,235.2,105.31L235.2,105.31z"/>
	</g>
</g>
<g>
	<g>
		<path d="M232.7,107.45c-0.29,0.94-0.65,1.85-1.09,2.73c0.01-0.01,0.13-0.07,0.13-0.07c0.1-0.06,0.2-0.12,0.31-0.18
			c0.1-0.06,0.2-0.12,0.31-0.18c0.03-0.02,0.11-0.05,0.13-0.08c0.44-0.88,0.8-1.79,1.09-2.73c0,0.01-0.14,0.08-0.13,0.07
			c-0.1,0.06-0.2,0.12-0.31,0.18c-0.1,0.06-0.2,0.12-0.31,0.18C232.8,107.39,232.71,107.43,232.7,107.45L232.7,107.45z"/>
	</g>
</g>
<g>
	<g>
		<path d="M143.61,139.66c-4.09-1.18-8.24-2.44-12.54-2.18c-0.3,0.02-0.57,0.48-0.87,0.5c4.3-0.26,8.45,1,12.54,2.18
			C142.97,140.23,143.4,139.6,143.61,139.66L143.61,139.66z"/>
	</g>
</g>
<g>
	<g>
		<path d="M145.25,140.2c-2.49-1.35-5.17-2.26-7.98-2.65c-2.78-0.39-5.59-0.3-8.38-0.08c-0.3,0.02-0.57,0.48-0.87,0.5
			c2.79-0.23,5.6-0.31,8.38,0.08c2.81,0.39,5.49,1.3,7.98,2.65C144.54,140.79,145.1,140.12,145.25,140.2L145.25,140.2z"/>
	</g>
</g>
<g>
	<g>
		<path d="M144.7,140.2c-11.1-7.35-25.3-4.11-36.74,0.64c-3.09,1.28-6.11,2.73-9.07,4.28c-0.27,0.14-0.62,0.38-0.83,0.48
			c5.53-2.89,11.27-5.45,17.27-7.18c6.04-1.74,12.49-2.7,18.73-1.59c3.49,0.62,6.82,1.91,9.78,3.87
			C143.97,140.79,144.59,140.13,144.7,140.2L144.7,140.2z"/>
	</g>
</g>
<g>
	<g>
		<path d="M95.53,147.66c-1.55,0.91-3.07,1.85-4.56,2.84c0.2-0.13,0.58-0.31,0.84-0.48c1.36-0.91,2.75-1.78,4.16-2.61
			c0.02-0.01,0.32-0.18,0.15-0.1C95.92,147.43,95.73,147.55,95.53,147.66L95.53,147.66z"/>
	</g>
</g>
<g>
	<g>
		<path d="M146.02,164.15c-5.78,4.5-12.87,6.57-19.32,9.87c-0.27,0.14-0.62,0.38-0.83,0.48c3.69-1.88,7.56-3.35,11.31-5.11
			c3.4-1.6,6.74-3.43,9.71-5.74C146.63,163.85,146.28,163.94,146.02,164.15L146.02,164.15z"/>
	</g>
</g>
<g>
	<g>
		<path d="M146.56,161.97c-4.99,5.3-11.32,8.97-18.09,11.52c-3.17,1.19-6.43,2.15-9.73,2.9c-2.75,0.62-5.58,0.64-8.37,0.96
			c-2.61,0.3-5.35,0.87-7.42,2.62c0.25-0.21,0.61-0.29,0.87-0.5c0.1-0.09,0.2-0.17,0.31-0.25c0.07-0.05,0.15-0.1,0.21-0.15
			c0.33-0.25-0.24,0.16-0.25,0.13c-0.02-0.04,0.94-0.41,1.06-0.46c0.65-0.23,1.32-0.4,1.99-0.54c1.44-0.29,2.91-0.43,4.38-0.55
			c1.45-0.12,2.91-0.21,4.36-0.4c1.52-0.2,3.02-0.59,4.51-0.98c6.36-1.66,12.44-4.16,18.05-7.59c3.29-2.01,6.35-4.4,9-7.21
			C147.21,161.7,146.78,161.73,146.56,161.97L146.56,161.97z"/>
	</g>
</g>
<g>
	<g>
		<path d="M102.73,177.82c-6.71-0.75-13.47-1.04-20.13-2.18c-1.67-0.28-3.32-0.63-4.95-1.1c-0.23-0.07-0.65,0.56-0.87,0.5
			c6.32,1.82,13.04,2.15,19.56,2.73c1.84,0.17,3.68,0.34,5.52,0.54C102.13,178.35,102.46,177.79,102.73,177.82L102.73,177.82z"/>
	</g>
</g>
<g>
	<g>
		<path d="M108.18,180c-8.29,0.28-16.87,0.46-24.97-1.56c-2.11-0.53-4.18-1.23-6.1-2.25c-0.16-0.09-0.72,0.58-0.87,0.5
			c3.55,1.88,7.58,2.74,11.53,3.26c4.31,0.57,8.67,0.71,13.01,0.69c2.18-0.01,4.36-0.07,6.54-0.14
			C107.61,180.49,107.89,180.01,108.18,180L108.18,180z"/>
	</g>
</g>
<g>
	<g>
		<path d="M94.55,149.47c-3.63,1.59-6.86,3.94-9.67,6.73c-2.97,2.95-5.52,6.28-8.38,9.33c-1.59,1.68-3.28,3.27-5.16,4.62
			c0.27-0.19,0.6-0.31,0.87-0.5c6.05-4.32,9.92-10.91,15.49-15.76c1.82-1.58,3.78-2.95,6-3.91
			C93.99,149.84,94.25,149.61,94.55,149.47L94.55,149.47z"/>
	</g>
</g>
<g>
	<g>
		<path d="M79.51,163.6c-3.54,3.75-7.57,6.98-11.45,10.36c0.25-0.21,0.62-0.28,0.87-0.5c3.88-3.38,7.91-6.61,11.45-10.36
			C80.16,163.33,79.73,163.37,79.51,163.6L79.51,163.6z"/>
	</g>
</g>
<g>
	<g>
		<path d="M74.92,171.82c-2.43,0.76-4.7,1.87-6.85,3.22c0.2-0.13,0.58-0.32,0.84-0.48c0.13-0.08,0.26-0.16,0.38-0.23
			c0.1-0.06,0.08-0.05-0.06,0.04c0.08-0.04,0.16-0.09,0.24-0.13c0.19-0.1,0.38-0.2,0.58-0.3c0.45-0.22,0.9-0.44,1.36-0.63
			c0.87-0.37,1.75-0.69,2.65-0.97C74.37,172.23,74.61,171.92,74.92,171.82L74.92,171.82z"/>
	</g>
</g>
<g>
	<g>
		<path d="M76.01,175.1c-2.54,0-5.09,0-7.63,0c-0.11,0-0.34,0.19-0.44,0.25c-0.1,0.06-0.32,0.25-0.43,0.25c2.54,0,5.09,0,7.63,0
			c0.11,0,0.34-0.19,0.44-0.25C75.68,175.29,75.9,175.1,76.01,175.1L76.01,175.1z"/>
	</g>
</g>
<g>
	<g>
		<path d="M149.29,163.6c-2.24,4.69-3.95,9.66-4.98,14.76c-1.05,5.24-1.4,10.75-0.18,15.99c0.66,2.85,1.82,5.57,3.52,7.95
			c0.02,0.03,0.85-0.52,0.87-0.5c-6.31-8.84-4.71-21.02-1.55-30.73c0.89-2.73,1.95-5.39,3.19-7.98
			C150.04,163.35,149.41,163.35,149.29,163.6L149.29,163.6z"/>
	</g>
</g>
<g>
	<g>
		<path d="M149.29,163.06c-4.03,5.59-4.69,12.64-6.54,19.08c0.06-0.23,0.8-0.26,0.87-0.5c1.86-6.44,2.51-13.5,6.54-19.08
			C149.98,162.8,149.47,162.81,149.29,163.06L149.29,163.06z"/>
	</g>
</g>
<g>
	<g>
		<path d="M149.29,161.97c-1.2,2.31-2.3,4.67-3.27,7.09c0.03-0.08,0.36-0.2,0.44-0.25c0.09-0.05,0.39-0.16,0.43-0.25
			c0.97-2.41,2.07-4.78,3.27-7.09c-0.04,0.09-0.35,0.2-0.44,0.25C149.62,161.77,149.34,161.86,149.29,161.97L149.29,161.97z"/>
	</g>
</g>
<g>
	<g>
		<path d="M167.28,165.78c3.25,5.04,4.85,10.85,7.09,16.36c-0.01-0.04,0.89-0.45,0.87-0.5c-2.24-5.51-3.84-11.31-7.09-16.36
			C168.13,165.26,167.29,165.79,167.28,165.78L167.28,165.78z"/>
	</g>
</g>
<g>
	<g>
		<path d="M170.55,169.05c3.43,8.16,4.21,16.89,4.32,25.65c0.03,2.53,0.03,5.07,0.04,7.6c0-0.16,0.87-0.33,0.87-0.5
			c-0.04-8.68,0.16-17.48-1.94-25.98c-0.62-2.49-1.42-4.92-2.42-7.28C171.43,168.59,170.53,169.01,170.55,169.05L170.55,169.05z"/>
	</g>
</g>
<g>
	<g>
		<path d="M173.82,200.13c-1.88,7.87-4.55,16.05-9.81,22.35c0.2-0.24,0.66-0.26,0.87-0.5c5.26-6.31,7.94-14.48,9.81-22.35
			C174.64,199.85,173.88,199.9,173.82,200.13L173.82,200.13z"/>
	</g>
</g>
<g>
	<g>
		<path d="M167.28,214.3c-2.09,5.19-5.4,9.72-8.72,14.17c0.18-0.24,0.68-0.25,0.87-0.5c3.32-4.45,6.64-8.99,8.72-14.17
			C168.05,214.04,167.38,214.06,167.28,214.3L167.28,214.3z"/>
	</g>
</g>
<g>
	<g>
		<path d="M149.29,206.67c1.46,5.98,4.31,11.58,8.18,16.36c0.04,0.05,0.84-0.53,0.87-0.5c-3.86-4.78-6.72-10.38-8.18-16.36
			C150.18,206.25,149.27,206.57,149.29,206.67L149.29,206.67z"/>
	</g>
</g>
<g>
	<g>
		<path d="M148.74,203.4c1.42,7.64,2.79,15.71,7.09,22.35c0.01,0.02,0.86-0.51,0.87-0.5c-4.3-6.64-5.67-14.71-7.09-22.35
			C149.63,203,148.72,203.28,148.74,203.4L148.74,203.4z"/>
	</g>
</g>
<g>
	<g>
		<path d="M148.74,205.04c1.22,5.28,2.18,10.63,3.82,15.81c-0.02-0.06,0.89-0.42,0.87-0.5c-1.64-5.18-2.6-10.53-3.82-15.81
			C149.63,204.62,148.72,204.93,148.74,205.04L148.74,205.04z"/>
	</g>
</g>
<g>
	<g>
		<path d="M165.64,162.51c2.97,3.13,5.64,6.52,8.71,9.55c1.58,1.56,3.26,3.01,5.1,4.26c1.78,1.21,3.66,2.25,5.55,3.27
			c2.12,1.15,4.26,2.29,6.27,3.63c0.13,0.09,0.75-0.58,0.87-0.5c-3.55-2.38-7.49-4.1-11.08-6.42c-3.69-2.39-6.73-5.53-9.62-8.81
			c-1.63-1.84-3.23-3.71-4.92-5.49C166.45,161.95,165.69,162.56,165.64,162.51L165.64,162.51z"/>
	</g>
</g>
<g>
	<g>
		<path d="M196.72,185.41c4.69,1.24,9.45,2.2,14.17,3.27c0.24,0.06,0.63-0.55,0.87-0.5c-4.73-1.07-9.48-2.03-14.17-3.27
			C197.35,184.85,196.94,185.47,196.72,185.41L196.72,185.41z"/>
	</g>
</g>
<g>
	<g>
		<path d="M179.27,148.88c8.85,2.02,16.66,6.58,24.53,10.9c0.16,0.09,0.72-0.58,0.87-0.5c-7.88-4.32-15.69-8.88-24.53-10.9
			C179.9,148.33,179.51,148.94,179.27,148.88L179.27,148.88z"/>
	</g>
</g>
<g>
	<g>
		<path d="M209.26,162.51c2.8,2.28,5.23,4.96,7.63,7.63c0.05,0.06,0.82-0.55,0.87-0.5c-2.41-2.68-4.83-5.36-7.63-7.63
			C210.03,161.93,209.35,162.58,209.26,162.51L209.26,162.51z"/>
	</g>
</g>
<g>
	<g>
		<path d="M201.63,157.06c4.25,2.58,8.04,5.79,11.3,9.55c2.99,3.45,5.53,7.25,8.17,10.97c1.63,2.3,3.29,4.56,5.07,6.74
			c0.04,0.05,0.84-0.54,0.87-0.5c-5.91-7.27-10.44-15.72-17.47-22.05c-2.18-1.96-4.55-3.69-7.06-5.21
			C202.35,156.47,201.76,157.14,201.63,157.06L201.63,157.06z"/>
	</g>
</g>
<g>
	<g>
		<path d="M192.9,181.59c8.66,3.92,17.4,9.11,27.11,9.66c2.63,0.15,5.27-0.12,7.78-0.94c0.31-0.1,0.56-0.4,0.87-0.5
			c-4.56,1.48-9.42,1.1-14-0.07c-4.83-1.22-9.41-3.25-13.9-5.37c-2.33-1.1-4.64-2.23-6.98-3.29
			C193.59,181.01,193.07,181.67,192.9,181.59L192.9,181.59z"/>
	</g>
</g>
<g>
	<g>
		<path d="M227.79,189.23c0.33,0.35,0.65,0.7,0.99,1.03c0.13,0.12,0.26,0.26,0.41,0.35c0.09,0.06,0.12,0.02,0.22-0.04
			c0.24-0.13,0.47-0.27,0.7-0.41c0.01-0.01,0.04-0.02,0.05-0.03c0.01-0.02,0-0.04,0-0.05c-0.02-0.1-0.07-0.19-0.11-0.27
			c-0.09-0.18-0.2-0.36-0.31-0.53c-0.01-0.01-0.86,0.5-0.87,0.5c0.13,0.21,0.26,0.42,0.36,0.64c0.02,0.04,0.1,0.19,0.05,0.23
			c0,0,0.01-0.01,0.01-0.01c0,0,0,0,0,0c0.21-0.12,0.42-0.25,0.63-0.37c0,0,0,0,0,0c0.07-0.04,0.14-0.08,0.22-0.12
			c-0.05,0.02-0.13-0.05-0.17-0.08c-0.1-0.08-0.2-0.16-0.29-0.25c-0.25-0.24-0.48-0.48-0.72-0.73c-0.11-0.12-0.22-0.24-0.33-0.35
			c0,0-0.15,0.08-0.13,0.07c-0.1,0.06-0.2,0.12-0.31,0.18c-0.1,0.06-0.2,0.12-0.31,0.18C227.91,189.16,227.8,189.23,227.79,189.23
			L227.79,189.23z"/>
	</g>
</g>
<g>
	<g>
		<path d="M227.03,183.82c-1.09-1.45-2.18-2.91-3.27-4.36c-0.03-0.04-0.85,0.53-0.87,0.5c1.09,1.45,2.18,2.91,3.27,4.36
			C226.19,184.36,227.01,183.79,227.03,183.82L227.03,183.82z"/>
	</g>
</g>
</svg>
