<?xml version="1.0" encoding="utf-8"?>
<!-- Generator: Adobe Adobe Illustrator 24.2.0, SVG Export Plug-In . SVG Version: 6.00 Build 0)  -->
<svg version="1.1" id="Layer_1" xmlns="http://www.w3.org/2000/svg" xmlns:xlink="http://www.w3.org/1999/xlink" x="0px" y="0px"
	 width="612px" height="792px" viewBox="0 0 612 792" style="enable-background:new 0 0 612 792;" xml:space="preserve">
<style type="text/css">
	.st0{fill:#FFFFFF;stroke:#000000;stroke-miterlimit:10;}
</style>
<path class="st0" d="M154.59,501.31c1.67-13.04,5.6-28.06,3.1-41.17c-1.65-8.62-2.49-17.56-3.05-26.32
	c-0.87-13.49-1.15-27.14-0.02-40.62c1.82-21.67,1.29-43.03,1.74-64.74c0.43-20.57,2.68-41.31,4.62-61.77
	c0.82-8.64,2.25-17.04,4.22-25.47c1.99-8.5,6.16-14.52,12.91-19.53c12.49-9.28,29.72-7.07,44.24-6.69
	c7.28,0.19,14.35,1.46,21.09,4.45c8.57,3.8,16,10.54,24.27,15.05c12.89,7.02,21.96,19.94,27.41,34.22
	c2.05,5.37,3.09,11.41,4.14,17.09c0.54,2.91,1.52,6.41,1.1,9.42c-0.25,1.83-1.38,3.26-1.68,5.02"/>
<path class="st0" d="M86.03,331.99c20.09,1.27,40.34,3.39,60.45,4.32c11.43,0.53,22.85-1.85,34.27-2.35
	c15.82-0.69,31.71-2.23,47.53-1.5c8.37,0.38,16.64,0.92,24.99,1.68c10.37,0.93,20.66-0.34,30.98,1.56
	c23.3,4.28,47.24-1.21,70.63-2.74c10.38-0.68,20.17-0.5,30.29-3.54c10.52-3.16,20.18-5.66,31.09-6.78
	c10.85-1.11,21.58-2.41,32.48-1.32c11.93,1.19,23.77,3.39,35.66,4.91c11.02,1.41,22.22,4.6,33.31,5.09
	c10.94,0.48,22.39,1.19,33.31,0.61c8.77-0.46,17.24-2.44,26.02-2.43"/>
<path class="st0" d="M233.04,349.42c8.4,5.63,15.14,12.81,20.22,21.51c3.15,2.81,3.73,6.2,1.76,10.19
	c-0.72,5.62-0.38,11.37-1.87,16.86c-2.84,10.46-8.35,16.77-18.62,17.98c-5.14,0.61-14.9,1.63-19.42-1.97
	c-4.46-3.55-9.64-12.97-10.05-19.08c-0.65-9.51,5.67-15.93,14.72-14.05c8.64,1.79,12.93,10.61,17.58,17.74
	c3.25,4.98,7.33,9.22,10.57,14.23c3.37,5.21,5.62,11.03,8.94,16.24c4.23,6.66,8.55,13.27,12.83,19.9c3.29,5.1,4.59,10.25,7.05,15.71
	c2.44,5.4,5.53,9.97,7.55,15.58c1.75,4.85,5,9.73,10.32,9.24c6.4-0.59,8.15-5.87,8.15-11.85"/>
<path class="st0" d="M301.02,359.38c6.21-0.81,12.2-0.14,17.98,2.01c1.27,14.71,1.21,29.28,1.2,44.05
	c-0.01,10.09-1.03,20.87,2.05,30.6c1.11,3.51,3.29,6.5,5.14,9.58c2.29,3.81,4.66,8.16,8.3,10.72c6.61,4.65,16.5,4.85,22.31-1.09
	c6.31-6.45,10.74-15.15,15.2-23.09c10.34-18.44,16.95-41.7,16.29-63.41c-0.19-6.13-0.3-11.81-5.98-14.41
	c-3.59-1.64-5.1-2.35-6.98,2.29c-8.37,20.62,0.9,44.66,3.84,65.31c1.29,9.02,3.15,18.08,5.57,26.82c2,7.23,3.43,13.53,3.44,21.12
	c0.01,4.42,0.46,6.75,2.85,10.37c0.49-0.07,0.88-0.32,1.19-0.75"/>
<path class="st0" d="M409.68,325.77c0.49,14.91,0.06,29.92,0.78,44.81c0.62,12.66,2.57,25.33,3.89,37.93
	c1.47,14.01,2.85,28.26,2.85,42.37c0.01,14.16,4.5,27.95,5.21,42.07c0.27,5.45,0.79,10.71,1.45,16.12c0.2,1.64-0.37,7.35,0.92,8.41"
	/>
<path class="st0" d="M214.12,343.71c3.72,1.06,7.4,2.28,11.03,3.65c0.33,0.42,0.72,0.75,1.18,0.99c1.19,0.71,2.63,1.1,3.91,1.57
	c1.58,0.58,3.11,1.33,4.31,2.62c1.31,1.4,2.17,3.25,3.31,4.8c3.31,4.47,7.69,7.55,10.15,12.74c1.03,2.17,1.81,4.46,2.85,6.63
	c0.5,1.04,1.74,3.08,1.39,4.34c-0.5,0.28-1.01,0.12-1.4-0.29"/>
<path class="st0" d="M159.84,338.56c-0.29,5.1-1.08,11.36-0.69,16.73c0.12,1.71,0.23,3.43,0.33,5.15c0.21,3.67,0.39,7.4,0.36,11.07
	c-0.04,5.74,0.43,11.48,0.49,17.22c0.08,7.43-0.72,14.96-1.15,22.37c-0.23,3.89-0.57,7.72-0.55,11.62c0.02,2.16-0.06,4.25-0.19,6.4
	c-0.04,0.76-0.18,1.59,0.04,2.31c-0.23,0.02-0.6,0.06-0.82,0"/>
<path class="st0" d="M150.48,503.48c0.37-8.69,0.67-17.08,1.64-25.64c0.28-2.48,0.3-4.89,0.28-7.39c-0.02-3.93,0-7.87,0-11.8
	c0-5.82-0.24-11.62-0.24-17.43"/>
<path class="st0" d="M159.12,333.67c1.37-8.31,2.34-16.74,1.45-25.19c-0.27-2.62-0.74-5.3-0.76-7.95c-0.03-2.73,0.45-5.59,0.74-8.3
	c0.35-3.33,0.92-6.28,1.82-9.46c0.67-2.35,1.09-4.68,1.08-7.13c-0.03-3.94-0.5-7.85-0.49-11.77c0.01-2.19-0.15-4.44,0.12-6.61
	c0.31-2.4,0.94-4.79,1.31-7.2c0.72-4.62,2.42-9.3,4.59-13.37c0.84-1.57,1.32-2.99,1.89-4.67c0.55-1.61,1.79-2.63,2.76-3.99
	c1.31-1.84,2.25-4.19,3.69-5.9c1.07-1.28,3.97-1.97,5.09-0.39"/>
<path class="st0" d="M301.79,358.63c2.25-0.13,9.01-1.4,12.09-0.16c1.85,0.74,3.79,1.57,5.34,2.91c2.8,2.42,5.32,6.15,5.95,9.98
	c0.96,5.9-0.59,12.16-1.29,17.98c-0.93,7.76-0.93,15.81-0.29,23.58c0.39,4.68,0.93,9.62,2.58,14.01c1.16,3.08,1.91,6.28,3.04,9.37
	c1.76,4.84,6.03,8.21,10.05,10.83c4.3,2.8,9.13,3.36,14.08,3.35c2.87-0.01,5.21,0.01,7.82-1.5c1.27-0.73,2.49-1.53,3.65-2.44
	c2.8-2.2,4.4-5.26,6.15-8.41"/>
<path class="st0" d="M393.01,474.87c-0.27-3.33-0.35-7.09-1.1-10.44c-0.24-1.05-0.46-2.11-0.64-3.17c-0.38-2.27-1.15-4.39-1.55-6.64
	c-0.24-1.33-0.17-2.59-0.18-3.94c-0.02-2.29-0.74-4.27-1.16-6.47c-0.42-2.16-0.97-4.18-1.59-6.28c-0.74-2.49-1.61-5.15-2.1-7.71
	c-0.41-2.14-0.47-4.35-0.89-6.49c-0.21-1.1-0.96-2.34-0.83-3.48c0.01-0.16,0.01-0.14,0,0.05"/>
<path class="st0" d="M412.9,335.06c0.26,7.84,0.63,15.71,0.67,23.56c0.03,5.17-0.13,10.31,0.26,15.48
	c0.52,6.85,1.92,13.55,2.62,20.37c0.6,5.86,0.75,11.8,1.15,17.68c0.39,5.73,1.01,11.41,1.65,17.12c0.8,7.19,1.35,14.39,2.22,21.57
	c0.83,6.82,1.79,13.63,2.56,20.46c0.31,2.42,0.53,4.86,0.65,7.3c-0.08,0.74,0,1.45,0.25,2.13"/>
<path class="st0" d="M402.62,328.74c-7.28,2.44-14.51,4.37-22.03,5.64c-3.75,0.63-7.65,0.14-11.45,0.45
	c-2.37,0.19-4.73,0.15-7.1,0.26c-2.72,0.12-5.47,0.82-8.11,1.51c-8.94,2.35-17.99,4.75-27.14,5.96c-3.83,0.51-7.5,0.7-11.36,0.7
	c0.49,0,1.24-0.18,1.48,0.23"/>
<path class="st0" d="M299.56,302.18c-1.73-8.42-2.78-15.65-6.11-23.23c-1.52-3.46-2.72-7.15-4.61-10.41
	c-1.44-2.48-3.12-4.9-4.94-7.07c-2.38-2.84-5.28-4.8-7.98-7.24c-2.84-2.57-5.45-5.39-8.22-8.05c-3.15-3.03-6.74-5.32-10.31-7.73
	c-4.44-2.99-9.16-4.78-13.99-6.95c-3.91-1.76-7.8-3.44-11.96-4.41c-7.22-1.69-14.92-3.34-22.33-3.39
	c-6.93-0.05-13.48,0.99-20.32,1.94c-2.59,0.36-5.3,1.29-7.64,2.5c-1.94,1.01-3.73,1.31-5.74,2c-0.65,0.22-5.75,2.72-4.45,3.52"/>
</svg>
