<?xml version="1.0" encoding="utf-8"?>
<!-- Generator: Adobe Adobe Illustrator 24.2.0, SVG Export Plug-In . SVG Version: 6.00 Build 0)  -->
<svg version="1.1" id="Layer_1" xmlns="http://www.w3.org/2000/svg" xmlns:xlink="http://www.w3.org/1999/xlink" x="0px" y="0px"
	 width="350px" height="350px" viewBox="0 0 350 350" style="enable-background:new 0 0 350 350;" xml:space="preserve">
<style type="text/css">
	.st0{fill:#FFFFFF;stroke:#000000;stroke-miterlimit:10;}
</style>
<path class="st0" d="M164.72,87.3c-8.34,9.52-16.98,18.78-25.22,28.38c-6.5,7.56-12.35,15.79-19.72,22.55
	c-3.72,3.41-7.49,6.75-11.24,10.12c-3.71,3.34-7.04,7.09-10.8,10.38c-3.41,2.99-7.25,5.56-9.32,9.75c0.99,0.03,2.16-0.86,2.97-1.31"
	/>
<path class="st0" d="M162.53,93.84c-5.9,7.64-11.6,15.68-17.98,22.97c-3.37,3.85-6.5,7.85-9.67,11.85
	c-6.56,8.29-13.67,15.69-21.42,22.84c-3.81,3.52-7.46,7.07-11.56,10.25c-2.33,1.81-4.67,3.52-6.67,5.7
	c-0.02,0.02-3.29,3.64-2.75,4.33c0.38,0.49,1.06,0.31,1.63,0.28"/>
<path class="st0" d="M166.08,193.06c0.16-9.9,0.17-19.78,0.25-29.67c0.04-4.63,0.64-9.23,0.92-13.85
	c0.38-6.38-0.15-12.75,0.16-19.15c0.26-5.37,0.3-10.73,0.78-16.09c0.35-3.84,0.08-7.5,0.07-11.32c0,0.14,0,0.27,0,0.41"/>
<path class="st0" d="M162.26,200.7c-0.96-8.72-1.9-17.06-1.42-25.82c0.29-5.38,0.04-10.76,0.4-16.15
	c0.72-10.72,1.55-21.4,1.83-32.13c0.11-4.41,0.48-8.82,0.56-13.23c0.07-4.25,1.48-8.31,1.92-12.53c0.21-1.96,0.29-3.98,0.58-5.93
	c0.24-1.66,1.19-2.84,1.69-4.36c0.49-1.49,0.26-3.16,0.66-4.69c0.11-0.42,0.28-0.78,0.34-1.2c-0.01,0.24,0.01,0.49-0.01,0.74"/>
<path class="st0" d="M170.44,182.43c-0.58,6.08-0.82,11.91-2.39,17.74c-0.48,1.78-0.73,3.66-1.1,5.47
	c-0.56,2.71-0.57,5.38-0.93,8.08c-0.02-0.06-0.31-1.28-0.21-0.76"/>
<path class="st0" d="M88.12,175.35c6.26,3.27,12.84,7.28,19.72,9.36c3.42,1.03,6.09,2.53,9.18,4.19c3.15,1.69,6.46,3.03,9.54,4.87
	c3.79,2.28,7.65,4.44,11.5,6.62c4.85,2.75,8.73,6.82,13.33,9.91c2.66,1.79,5.72,3.34,8.08,5.54c1.29,1.21,2.48,2.54,3.73,3.79
	c-0.22-0.22-0.45-0.45-0.67-0.67"/>
<path class="st0" d="M96.57,175.62c7.95,3.47,16.09,6.32,24,9.84c6.79,3.02,13.34,6.84,19.39,11.11c2.38,1.69,5.12,2.7,7.57,4.27
	c2.14,1.37,3.64,3.36,5.5,5.04c0.72,0.65,5.8,4.48,5.96,3.54"/>
<path class="st0" d="M112.92,177.25c7.32,2.82,14.66,5.71,21.77,9.01c4.44,2.06,9.07,4.69,13.16,7.4c3.52,2.33,6.75,5.21,10.05,7.83
	c0.9,0.71,3.32,3.42,4.08,3.56"/>
<path class="st0" d="M172.89,87.57c6.17,4.59,12.4,9.08,18.71,13.47c2.05,1.34,3.97,2.84,5.77,4.5c2.96,2.8,5.57,5.94,8.21,9.04
	c4.6,5.42,9.67,11.58,11.9,18.4c1.34,4.12,1.64,8.27,0.13,12.36c-1.21,3.27-1.67,6.67-4.46,9.11c-1.92,1.67-4.75,3.89-7.3,4.47
	c-1.4,0.32-3.47,0.31-4.89,0.08c-1.99-0.32-3.22-1.73-4.65-3.09c-3.47-3.28-7.96-6.66-7.02-12c0.56-3.18,2.92-4.67,5.8-5.58
	c2.37-0.74,5.6-1.83,8.06-1.17c2.31,0.63,4.2,2.84,5.54,4.73c1.48,2.09,3.15,3.94,4.34,6.21c0.5,0.95,0.88,3.02,1.84,3.53"/>
<path class="st0" d="M173.98,96.57c4.87,3.49,9.2,6.61,13.54,10.51c1.37,1.23,2.68,2.43,4.2,3.45c1.48,0.99,2.88,2.07,4.33,3.14
	c3.37,2.46,6.47,5.11,9.41,8.11c2.34,2.4,3.2,5.37,4.77,8.26c1.5,2.76,2.13,5.68,3.33,8.53c1.26,2.99,2.32,5.83,2.4,9.12
	c0.06,2.46-0.28,5.52-2.51,6.95c-1.47,0.94-3.48,2.31-5.32,2.19c1.48-0.06,3.39-3.8,4.01-4.98c1.55-2.94,1.6-7.03,1.34-10.3
	c-0.2-2.56-0.93-4.9-1.9-7.22c-0.37-0.89-0.89-2.85-1.9-3.13"/>
<path class="st0" d="M108.56,79.94c9.74,0,19.33-0.11,29.03,0.48c5.07,0.3,10.06,0.63,15.14,0.61c9.21-0.03,18.4-0.26,27.58-1.09
	c5.37-0.48,10.71-0.97,15.99-2.06c6.27-1.29,12.63-1.92,18.88-3.2c4.73-0.97,9.77-2.06,14.35-3.66c1.35-0.47,2.69-1.18,4.07-1.46
	c-0.34,0.18-0.68,0.37-1.01,0.57c0,0-108.49,6.27-109.58,6c5.44-0.52,11.04-0.86,16.49-0.11c2.28,0.32,4.38,0.38,6.69,0.38
	c4.11,0,8.18,0.45,12.29,0.53c2.82,0.06,5.63,0.33,8.46,0.31c2.88-0.02,5.65-0.62,8.49-0.84c1.95-0.15,3.92-0.15,5.87-0.33
	c0.66-0.06,3.73-0.32,3.86-0.48"/>
</svg>
